<svg xmlns="http://www.w3.org/2000/svg" xmlns:xlink="http://www.w3.org/1999/xlink" width="1030" height="578.247" viewBox="0 0 1030 578.247">
  <defs>
    <linearGradient id="linear-gradient" y1="0.5" x2="1" y2="0.5" gradientUnits="objectBoundingBox">
      <stop offset="0" stop-color="#fff"/>
      <stop offset="1"/>
    </linearGradient>
  </defs>
  <g id="Grupo_223729" data-name="Grupo 223729" transform="translate(-285 -1848.301)">
    <path id="Trazado_203018" data-name="Trazado 203018" d="M0,0V33.392" transform="translate(422.934 1888.882)" fill="none" stroke="#dc1f27" stroke-width="1.5"/>
    <path id="Trazado_203004" data-name="Trazado 203004" d="M0,0H27.925" transform="translate(495.602 1986.957)" fill="none" stroke="#dc1f27" stroke-width="1.5"/>
    <path id="Trazado_203001" data-name="Trazado 203001" d="M0,0,10.1,26.035" transform="translate(468.045 2012.749)" fill="none" stroke="#dc1f27" stroke-width="1.5"/>
    <path id="Trazado_202987" data-name="Trazado 202987" d="M0,0,19.355,19.748" transform="translate(534.835 2115.621)" fill="none" stroke="#dc1f27" stroke-width="1.5"/>
    <path id="Trazado_201892" data-name="Trazado 201892" d="M-2985.673-3665.321s51.882-50.776,125.205-12.219" transform="translate(3616.598 5852.544)" fill="none" stroke="#aea9a9" stroke-miterlimit="10" stroke-width="1.5"/>
    <path id="Trazado_201893" data-name="Trazado 201893" d="M-2710.7-3713.877s44.38-50.777,107.1-12.219" transform="translate(3606.33 5854.357)" fill="none" stroke="#aea9a9" stroke-miterlimit="10" stroke-width="1.5"/>
    <path id="Trazado_201894" data-name="Trazado 201894" d="M-2812.07-3688.768s27.7-50.986,80.719-20.868" transform="translate(3610.116 5853.559)" fill="none" stroke="#aea9a9" stroke-miterlimit="10" stroke-width="1.5"/>
    <path id="Trazado_201895" data-name="Trazado 201895" d="M-3161.093-3637.012s37.108-50.778,89.553-12.22" transform="translate(3623.148 5851.487)" fill="none" stroke="#aea9a9" stroke-miterlimit="10" stroke-width="1.5"/>
    <path id="Trazado_201896" data-name="Trazado 201896" d="M-2502.811-3709.319s51.665-13.352,59.591,43.3" transform="translate(3598.567 5853.243)" fill="none" stroke="#aea9a9" stroke-miterlimit="10" stroke-width="1.5"/>
    <path id="Trazado_202977" data-name="Trazado 202977" d="M0,0V35.454" transform="translate(1268.306 2204.186)" fill="none" stroke="#dc1f27" stroke-width="1.5"/>
    <path id="Trazado_202978" data-name="Trazado 202978" d="M46.642,0,0,1.618" transform="translate(1182.958 2202.68)" fill="none" stroke="#dc1f27" stroke-width="1.5"/>
    <path id="Trazado_201897" data-name="Trazado 201897" d="M-2409.613-3641.071l-.837-12.054-10.02,6.752Z" transform="translate(3595.493 5851.093)" fill="#dc1f27"/>
    <path id="Trazado_201898" data-name="Trazado 201898" d="M-2435.116-3667.543l-12.052.864,6.774,10.005Z" transform="translate(3596.49 5851.631)" fill="#aea9a9"/>
    <path id="Trazado_201899" data-name="Trazado 201899" d="M-2599.747-3732.8l-8.74,8.343,11.595,3.4Z" transform="translate(3602.513 5854.067)" fill="#aea9a9"/>
    <path id="Trazado_201900" data-name="Trazado 201900" d="M-2854.5-3683.077l-8.74,8.343,11.595,3.4Z" transform="translate(3612.026 5852.211)" fill="#aea9a9"/>
    <path id="Trazado_201901" data-name="Trazado 201901" d="M-3164.693-3640.012l-2.34,11.854,11.436-3.9Z" transform="translate(3623.37 5850.603)" fill="#aea9a9"/>
    <path id="Trazado_201902" data-name="Trazado 201902" d="M-2725.5-3715.365l-8.741,8.343,11.595,3.4Z" transform="translate(3607.209 5853.417)" fill="#aea9a9"/>
    <path id="Trazado_201903" data-name="Trazado 201903" d="M-2743.086-3819.482H-2731l-6.042-10.464Z" transform="translate(3607.54 5857.695)" fill="#aea9a9"/>
    <path id="Trazado_201904" data-name="Trazado 201904" d="M-2317.761-3612.466h-12.083L-2323.8-3602Z" transform="translate(3592.109 5849.575)" fill="#dc1f27"/>
    <path id="Trazado_201905" data-name="Trazado 201905" d="M-2427.6-3860.971s188.8,66.223,112.19,185.512" transform="translate(3595.759 5858.854)" fill="none" stroke="#dc1f27" stroke-miterlimit="10" stroke-width="1.5"/>
    <path id="Trazado_202988" data-name="Trazado 202988" d="M12,0H65.634a12,12,0,0,1,12,12v4.189a12,12,0,0,1-12,12H12a12,12,0,0,1-12-12V12A12,12,0,0,1,12,0Z" transform="translate(666.77 2058.17)" fill="#f0f8fe"/>
    <path id="Trazado_201906" data-name="Trazado 201906" d="M-3126.99-3783.633l178.3,6.412v-12.824Z" transform="translate(3621.875 5856.205)" fill="#f0f8fe"/>
    <path id="Trazado_201907" data-name="Trazado 201907" d="M-2587.44-3494.665l-74.6,51.267,15.121,16.967Z" transform="translate(3604.513 5845.176)" fill="#f0f8fe"/>
    <path id="Trazado_203005" data-name="Trazado 203005" d="M12,0H65.634a12,12,0,0,1,12,12v4.189a12,12,0,0,1-12,12H12a12,12,0,0,1-12-12V12A12,12,0,0,1,12,0Z" transform="translate(534.835 1974.005)" fill="#e3e3e3"/>
    <path id="Trazado_202979" data-name="Trazado 202979" d="M12,0H68.46a12,12,0,0,1,12,12v4.189a12,12,0,0,1-12,12H12a12,12,0,0,1-12-12V12A12,12,0,0,1,12,0Z" transform="translate(1208.869 2177.034)" fill="#e3e3e3"/>
    <path id="Trazado_202989" data-name="Trazado 202989" d="M12,0H112.517a12,12,0,0,1,12,12v4.189a12,12,0,0,1-12,12H12a12,12,0,0,1-12-12V12A12,12,0,0,1,12,0Z" transform="translate(1078.368 2102.932)" fill="#e3e3e3"/>
    <path id="Trazado_203006" data-name="Trazado 203006" d="M12,0H112.517a12,12,0,0,1,12,12v4.189a12,12,0,0,1-12,12H12a12,12,0,0,1-12-12V12A12,12,0,0,1,12,0Z" transform="translate(808.236 1996.518)" fill="#e3e3e3"/>
    <path id="Trazado_202990" data-name="Trazado 202990" d="M12,0H112.517a12,12,0,0,1,12,12v4.189a12,12,0,0,1-12,12H12a12,12,0,0,1-12-12V12A12,12,0,0,1,12,0Z" transform="translate(808.236 2079.006)" fill="#e3e3e3"/>
    <path id="Trazado_202980" data-name="Trazado 202980" d="M20.451,0h99.9A20.451,20.451,0,0,1,140.8,20.451v6.355a20.451,20.451,0,0,1-20.451,20.451h-99.9A20.451,20.451,0,0,1,0,26.805V20.451A20.451,20.451,0,0,1,20.451,0Z" transform="translate(851.062 2379.291)" fill="#f0f8fe"/>
    <path id="Trazado_203002" data-name="Trazado 203002" d="M12,0H88.021a12,12,0,0,1,12,12v4.189a12,12,0,0,1-12,12H12a12,12,0,0,1-12-12V12A12,12,0,0,1,12,0Z" transform="translate(502.287 2024.127)" fill="#e3e3e3"/>
    <path id="Trazado_202991" data-name="Trazado 202991" d="M12,0h90.546a12,12,0,0,1,12,12v4.189a12,12,0,0,1-12,12H12a12,12,0,0,1-12-12V12A12,12,0,0,1,12,0Z" transform="translate(530.209 2084.424)" fill="#e3e3e3"/>
    <path id="Trazado_202992" data-name="Trazado 202992" d="M12,0H65.634a12,12,0,0,1,12,12v4.189a12,12,0,0,1-12,12H12a12,12,0,0,1-12-12V12A12,12,0,0,1,12,0Z" transform="translate(412.914 2167.037)" fill="#e3e3e3"/>
    <path id="Trazado_203020" data-name="Trazado 203020" d="M12,0H65.634a12,12,0,0,1,12,12v4.189a12,12,0,0,1-12,12H12a12,12,0,0,1-12-12V12A12,12,0,0,1,12,0Z" transform="translate(391.55 1858.493)" fill="#e3e3e3"/>
    <path id="Trazado_201908" data-name="Trazado 201908" d="M-2416.97-3612.893l-148.948-100.221-615.291,103.55L-3193.1-3581.7v24.12l88.985-11.107h40.371l167.807-32.668,34.534,9.569,247.089-36.928,33.2,32.7Z" transform="translate(3624.344 5853.333)" fill="#b0650c"/>
    <path id="Trazado_201909" data-name="Trazado 201909" d="M-3345.016-3661.077l42.129,22.982,67.993-15.283-45.945-19.89Z" transform="translate(3630.016 5851.845)" fill="#6d0c12"/>
    <path id="Trazado_201910" data-name="Trazado 201910" d="M-3333.084-4007.946l30.643,16.192v333.79l-30.643-16.416Z" transform="translate(3629.571 5864.342)" fill="#b1410e"/>
    <path id="Trazado_201911" data-name="Trazado 201911" d="M-3345.016-3660.6l42.129,22.982v113.966l-42.129-26.074Z" transform="translate(3630.016 5851.372)" fill="#b1410e"/>
    <path id="Trazado_201912" data-name="Trazado 201912" d="M-3301.253-3637.323l67.993-15.283v117.533l-67.993,11.716Z" transform="translate(3628.382 5851.073)" fill="#883818"/>
    <path id="Trazado_201913" data-name="Trazado 201913" d="M-3301.253-3991.493l53.616-9.469v333.436l-53.616,9.823Z" transform="translate(3628.382 5864.081)" fill="#883818"/>
    <path id="Trazado_201914" data-name="Trazado 201914" d="M-3333.084-4008.26l30.643,16.192,53.616-9.469-38.448-14.818Z" transform="translate(3629.571 5864.656)" fill="#6d0c12"/>
    <path id="Trazado_201915" data-name="Trazado 201915" d="M-3306.941-4005.435l11.219,5.538,21.065-3.72-12.83-5.607Z" transform="translate(3628.594 5864.39)" fill="#430d10"/>
    <path id="Trazado_201916" data-name="Trazado 201916" d="M-3188.705-3614.58l47.059-3.283,35.75,20.064-45.6,3.648Z" transform="translate(3624.179 5849.776)" fill="#e46109"/>
    <path id="Trazado_201917" data-name="Trazado 201917" d="M-3151.295-3567.065l42.053-4.055,4.742-25.9-45.6,3.648Z" transform="translate(3622.782 5848.998)" fill="#ad4622"/>
    <path id="Trazado_201918" data-name="Trazado 201918" d="M-3188.705-3614.453l37.209,20.428-1.2,26.308-34.554-20.387Z" transform="translate(3624.179 5849.648)" fill="#673126"/>
    <path id="Trazado_201919" data-name="Trazado 201919" d="M-2654.123-3709.917l56.544,37.209,111.628-18.6-58.732-35.385-47.427,7.272Z" transform="translate(3604.217 5853.84)" fill="url(#linear-gradient)"/>
    <path id="Trazado_201920" data-name="Trazado 201920" d="M-2595.386-3671.336s6.931,23.712,15.321,35.385l43.411-5.107s31.373-22.982,52.9-48.883Z" transform="translate(3602.024 5852.468)" fill="#212829"/>
    <path id="Trazado_201921" data-name="Trazado 201921" d="M-2654.123-3709.266l56.544,37.209s7.661,25.537,15.321,35.385l-37.938-23.635S-2636.248-3672.057-2654.123-3709.266Z" transform="translate(3604.217 5853.189)" fill="#2f393b"/>
    <path id="Trazado_201922" data-name="Trazado 201922" d="M-2404.177-3620.833l39.173-4.609,85.119,54.841-106.491,18.121-2.838-57.94Z" transform="translate(3594.885 5850.059)" fill="#328928"/>
    <path id="Trazado_201923" data-name="Trazado 201923" d="M-2279.931-3568.474l-125.49,20.915.547,10.883,124.943-21.1Z" transform="translate(3594.931 5847.932)" fill="#276124"/>
    <path id="Trazado_201924" data-name="Trazado 201924" d="M-2282.931-3559.317v63.232l-202.827,36.966,1.062-141.481,92.437-9.236,3.781,68.171Z" transform="translate(3597.931 5849.476)" fill="#ed915b"/>
    <path id="Trazado_201925" data-name="Trazado 201925" d="M-2890.92-3597.021v58.611l-66.15-28.655-101.171,13.09-.486-10.378Z" transform="translate(3619.326 5848.998)" fill="#b1410e"/>
    <path id="Trazado_201926" data-name="Trazado 201926" d="M-3100.663-3563.085v11.107l40.857-.729-.486-10.378Z" transform="translate(3620.892 5847.73)" fill="#7c2c0e"/>
    <path id="Trazado_201927" data-name="Trazado 201927" d="M-3193.1-3551.978v17.753l88.985-17.753v-11.107Z" transform="translate(3624.344 5847.73)" fill="#883818"/>
    <path id="Trazado_201928" data-name="Trazado 201928" d="M-2884.411-3597.021l34.534,9.569v59.1l-34.534-10.053Z" transform="translate(3612.817 5848.998)" fill="#883818"/>
    <path id="Trazado_201929" data-name="Trazado 201929" d="M-2848.537-3588.806l296.7-44.468,4.864,77.945-301.565,25.618Z" transform="translate(3611.477 5850.352)" fill="#c95d3b"/>
    <path id="Trazado_201930" data-name="Trazado 201930" d="M-2605.505-3509.585l43.776,21.115v-47.667h-43.776Z" transform="translate(3602.402 5846.725)" fill="#e15917"/>
    <path id="Trazado_201931" data-name="Trazado 201931" d="M-2524.525-3494.793l-35.507,6.323v-47.667l35.507,12.73Z" transform="translate(3600.704 5846.725)" fill="#a94624"/>
    <path id="Trazado_201932" data-name="Trazado 201932" d="M-2487.154-3456.2-2523.147-3481v-50.552h37.055Z" transform="translate(3599.327 5846.553)" fill="#762a0e"/>
    <path id="Trazado_201933" data-name="Trazado 201933" d="M-3238.853-3881.892l33.561,22.131,52.774-4.864-30.223-21.268Z" transform="translate(3626.052 5859.785)" fill="#16326e"/>
    <path id="Trazado_201934" data-name="Trazado 201934" d="M-3211.821-3911.188s38.182,27.057,39.641,54.3h3.064s2.286-22.288-40.031-56.379Z" transform="translate(3625.043 5860.807)" fill="#e7d933"/>
    <path id="Trazado_201935" data-name="Trazado 201935" d="M-3200.54-3909.024s38.183,27.058,39.641,54.3h3.064s2.286-22.288-40.031-56.379Z" transform="translate(3624.621 5860.726)" fill="#e7d933"/>
    <path id="Trazado_201936" data-name="Trazado 201936" d="M-3194.011-3911.188s38.183,27.057,39.641,54.3h3.064s2.286-22.288-40.03-56.379Z" transform="translate(3624.377 5860.807)" fill="#e7d933"/>
    <path id="Trazado_201937" data-name="Trazado 201937" d="M-3171.361-3888.488s38.183,27.056,39.641,54.295h3.064s2.286-22.288-40.03-56.378Z" transform="translate(3623.532 5859.959)" fill="#e7d933"/>
    <path id="Trazado_201938" data-name="Trazado 201938" d="M-3200.968-3904.229s38.182,27.057,39.642,54.295h3.064s2.286-22.287-40.03-56.378Z" transform="translate(3624.637 5860.547)" fill="#e7d933"/>
    <path id="Trazado_201939" data-name="Trazado 201939" d="M-3193.553-3904.229s38.182,27.057,39.641,54.295h3.064s2.287-22.287-40.03-56.378Z" transform="translate(3624.36 5860.547)" fill="#ffd63c"/>
    <path id="Trazado_201940" data-name="Trazado 201940" d="M-3174.547-3888.9s43.586,17.036,51.579,43.116l2.973-.74s-3.163-22.18-52.459-45.044Z" transform="translate(3623.651 5859.997)" fill="#ffd63c"/>
    <path id="Trazado_201941" data-name="Trazado 201941" d="M-3208.862-3904.229s38.182,27.057,39.642,54.295h3.064s2.286-22.287-40.03-56.378Z" transform="translate(3624.932 5860.547)" fill="#ffd63c"/>
    <path id="Trazado_203007" data-name="Trazado 203007" d="M20.453,0c11.3,0,20.453,16.441,20.453,36.723S31.748,73.446,20.453,73.446,0,57,0,36.723,9.157,0,20.453,0Z" transform="translate(445.445 1900.007)" fill="#16326e"/>
    <path id="Trazado_203008" data-name="Trazado 203008" d="M0,0H12.257V73.446H0Z" transform="translate(455.927 1900.007)" fill="#16326e"/>
    <path id="Trazado_203009" data-name="Trazado 203009" d="M20.453,0c11.3,0,20.453,16.441,20.453,36.723S31.748,73.446,20.453,73.446,0,57,0,36.723,9.157,0,20.453,0Z" transform="translate(435.475 1900.007)" fill="#21418f"/>
    <path id="Trazado_203010" data-name="Trazado 203010" d="M0,0H46.11V19.213H0Z" transform="translate(409.817 1930.406)" fill="#16326e"/>
    <path id="Trazado_203011" data-name="Trazado 203011" d="M5.35,0C8.305,0,10.7,4.3,10.7,9.606s-2.4,9.606-5.35,9.606S0,14.912,0,9.606,2.4,0,5.35,0Z" transform="translate(404.163 1930.406)" fill="#21418f"/>
    <path id="Trazado_203012" data-name="Trazado 203012" d="M5.35,0C8.305,0,10.7,4.3,10.7,9.606s-2.4,9.606-5.35,9.606S0,14.912,0,9.606,2.4,0,5.35,0Z" transform="translate(449.397 1930.406)" fill="#16326e"/>
    <path id="Trazado_201942" data-name="Trazado 201942" d="M-3181.758-3860.918l29.325,75.662,119.268,117.055h6.323l-121.3-118.028-30.339-77.823Z" transform="translate(3623.92 5858.969)" fill="#16326e"/>
    <path id="Trazado_201943" data-name="Trazado 201943" d="M-3140.5-3784.726l-23.979,3.4,40.71,26.527,20.113-6.1Z" transform="translate(3623.275 5856.007)" fill="#16326e"/>
    <path id="Trazado_201944" data-name="Trazado 201944" d="M-3164.478-3758.329v-22.861l40.71,26.527v21.14Z" transform="translate(3623.275 5855.875)" fill="#21418f"/>
    <path id="Trazado_201945" data-name="Trazado 201945" d="M-3102.075-3759.969l-20.113,6.1v21.14l20.113-6.957Z" transform="translate(3621.696 5855.083)" fill="#0f2753"/>
    <path id="Trazado_201946" data-name="Trazado 201946" d="M-3183.7-3877.321l-34.048-33.867s-9-7.477-14.592,5.9,4.863,21.888,16.294,24.32l28.211,9.485Z" transform="translate(3625.867 5860.807)" fill="#0f2753"/>
    <path id="Trazado_201947" data-name="Trazado 201947" d="M-3195.938-3552.483v17.753l-73.167,5.715,29.853-47.588Z" transform="translate(3627.181 5848.235)" fill="#883818"/>
    <path id="Trazado_201948" data-name="Trazado 201948" d="M-3240.621-3587.452l57.638,34.207,33.854-7.113-45.163-36.662Z" transform="translate(3626.118 5848.997)" fill="#193e8d"/>
    <path id="Trazado_201949" data-name="Trazado 201949" d="M-3240.621-3571.844l56.908,25.536.73-6.566-57.638-34.207Z" transform="translate(3626.118 5848.626)" fill="#0d2865"/>
    <path id="Trazado_201950" data-name="Trazado 201950" d="M-3180.775-3551.823l-.73,6.566,34.584-6.84v-6.84Z" transform="translate(3623.91 5847.575)" fill="#142042"/>
    <path id="Trazado_201951" data-name="Trazado 201951" d="M-3345.016-3545.429l42.129,26.074v16.919l-42.129-23.994Z" transform="translate(3630.016 5847.071)" fill="#465159"/>
    <path id="Trazado_201952" data-name="Trazado 201952" d="M-3250.667-3529.266l-50.585,10.514v16.919l50.585-10.214Z" transform="translate(3628.382 5846.468)" fill="#303336"/>
    <path id="Trazado_201953" data-name="Trazado 201953" d="M-3195.176-3533.105l-53.529,3.7v17.219l53.529-3.5Z" transform="translate(3626.42 5846.611)" fill="#303336"/>
    <path id="Trazado_201954" data-name="Trazado 201954" d="M-3104.115-3551.547l-88.985,17.753v17.413l88.985-17.413Z" transform="translate(3624.344 5847.3)" fill="#465159"/>
    <path id="Trazado_201955" data-name="Trazado 201955" d="M-3059.806-3552.305v18.313l-40.857.17v-17.753Z" transform="translate(3620.892 5847.328)" fill="#6f6863"/>
    <path id="Trazado_201956" data-name="Trazado 201956" d="M-2957.05-3565.9l-101.171,13.091v18.313l101.171-11.694Z" transform="translate(3619.307 5847.835)" fill="#465159"/>
    <path id="Trazado_201957" data-name="Trazado 201957" d="M-2886.977-3537.248l-66.15-28.655v19.71l66.15,29.277Z" transform="translate(3615.383 5847.835)" fill="#303336"/>
    <path id="Trazado_201958" data-name="Trazado 201958" d="M-2849.876-3526.083v23.994l-34.534-13.717v-20.331Z" transform="translate(3612.817 5846.725)" fill="#23282c"/>
    <path id="Trazado_201959" data-name="Trazado 201959" d="M-2564-3552.305l-284.541,25.618v23.994L-2564-3527.5Z" transform="translate(3611.477 5847.328)" fill="#2b3034"/>
    <path id="Trazado_201960" data-name="Trazado 201960" d="M-2728.265-3614.184s-11.735,29.973,1.961,56.509c0,0,26.256,30.845,97.684,6.466,0,0,13.818-22.225,3.907-60.832Z" transform="translate(3607.161 5849.639)" fill="#b1410e"/>
    <path id="Trazado_202981" data-name="Trazado 202981" d="M52.531,0c29.012,0,52.531,10.289,52.531,22.982S81.543,45.964,52.531,45.964,0,35.675,0,22.982,23.519,0,52.531,0Z" transform="translate(878.1 2212.486) rotate(-1.987)" fill="#5c220b"/>
    <path id="Trazado_201961" data-name="Trazado 201961" d="M-2726.046-3555.483s30.216,29.248,97.684,6.466l.569,16.407s-62.421,20.955-97.563-3.012Z" transform="translate(3606.903 5847.447)" fill="#6f6863"/>
    <path id="Trazado_201962" data-name="Trazado 201962" d="M-2774.137-3688.24l56.543,37.209,111.628-18.6-58.732-35.385-47.427,7.272Z" transform="translate(3608.699 5853.031)" fill="url(#linear-gradient)"/>
    <path id="Trazado_201963" data-name="Trazado 201963" d="M-2715.4-3649.658s6.931,23.712,15.322,35.385l43.411-5.107s31.372-22.983,52.9-48.883Z" transform="translate(3606.506 5851.658)" fill="#212829"/>
    <path id="Trazado_201964" data-name="Trazado 201964" d="M-2774.137-3687.589l56.543,37.209s7.661,25.536,15.322,35.385l-37.939-23.635S-2756.262-3650.38-2774.137-3687.589Z" transform="translate(3608.699 5852.379)" fill="#2f393b"/>
    <path id="Trazado_201965" data-name="Trazado 201965" d="M-2908.739-3660.947l55.392,37.39,130.728-20.6-58.367-36.235Z" transform="translate(3613.725 5852.111)" fill="#328928"/>
    <path id="Trazado_201966" data-name="Trazado 201966" d="M-2906.622-3637.607l53.274,36.13V-3622.8l-55.392-37.39Z" transform="translate(3613.725 5851.357)" fill="#1e431c"/>
    <path id="Trazado_201967" data-name="Trazado 201967" d="M-2720.471-3642.748l-130.728,20.6v21.325l123.181-20.961Z" transform="translate(3611.577 5850.706)" fill="#276124"/>
    <path id="Trazado_201968" data-name="Trazado 201968" d="M-3118.979-3645.38l52.166,35.385,176.927-28.012-58-32.909Z" transform="translate(3621.576 5851.758)" fill="#944a88"/>
    <path id="Trazado_201969" data-name="Trazado 201969" d="M-3115.331-3613.382l48.518,33.381v-29l-52.166-35.385Z" transform="translate(3621.576 5850.767)" fill="#6d3467"/>
    <path id="Trazado_201970" data-name="Trazado 201970" d="M-2887.863-3636.73l-176.927,28.012v29l166.712-28.508Z" transform="translate(3619.552 5850.481)" fill="#491945"/>
    <path id="Trazado_201971" data-name="Trazado 201971" d="M-2557.6-3601.568s-12.768,29.548,0,56.543c0,0,25.171,31.738,97.4,9.85,0,0,14.581-21.733,6.014-60.661Z" transform="translate(3600.825 5849.167)" fill="#b1410e"/>
    <path id="Trazado_202982" data-name="Trazado 202982" d="M52.531,0c29.012,0,52.531,10.289,52.531,22.982S81.543,45.964,52.531,45.964,0,35.675,0,22.982,23.519,0,52.531,0Z" transform="translate(1043.227 2224.617)" fill="#161615"/>
    <path id="Trazado_201972" data-name="Trazado 201972" d="M-2577.765-3654.1l46.552,30.635,91.9-15.317-48.354-29.133-39.047,5.987Z" transform="translate(3601.366 5851.645)" fill="url(#linear-gradient)"/>
    <path id="Trazado_201973" data-name="Trazado 201973" d="M-2529.407-3622.334s5.707,19.522,12.614,29.132l35.74-4.2s25.829-18.922,43.549-40.246Z" transform="translate(3599.561 5850.515)" fill="#212829"/>
    <path id="Trazado_201974" data-name="Trazado 201974" d="M-2577.765-3653.563l46.552,30.635s6.308,21.024,12.614,29.132l-31.234-19.458S-2563.049-3622.928-2577.765-3653.563Z" transform="translate(3601.366 5851.109)" fill="#2f393b"/>
    <path id="Trazado_201975" data-name="Trazado 201975" d="M-2557.379-3542.832s29.184,30.279,97.4,9.85v16.416s-63.11,18.778-97.4-6.393Z" transform="translate(3600.605 5846.975)" fill="#6f6863"/>
    <path id="Trazado_203021" data-name="Trazado 203021" d="M8.477-3.158A3.662,3.662,0,0,1,7.311-.721,3.82,3.82,0,0,1,4.7.137,3.507,3.507,0,0,1,1.876-1.128,5.088,5.088,0,0,1,.813-4.512v-.957a5.671,5.671,0,0,1,.5-2.44,3.7,3.7,0,0,1,1.4-1.617,3.911,3.911,0,0,1,2.105-.564A3.6,3.6,0,0,1,7.362-9.2,3.706,3.706,0,0,1,8.477-6.754H7.157a2.86,2.86,0,0,0-.742-1.728,2.244,2.244,0,0,0-1.6-.535,2.348,2.348,0,0,0-1.972.93,4.271,4.271,0,0,0-.714,2.648v.965A4.391,4.391,0,0,0,2.81-1.894,2.187,2.187,0,0,0,4.7-.937a2.526,2.526,0,0,0,1.678-.5,2.75,2.75,0,0,0,.776-1.726ZM14.636,0a2.657,2.657,0,0,1-.178-.779,2.822,2.822,0,0,1-2.105.916,2.611,2.611,0,0,1-1.794-.619,2,2,0,0,1-.7-1.569,2.091,2.091,0,0,1,.878-1.794,4.142,4.142,0,0,1,2.471-.639h1.23v-.581a1.42,1.42,0,0,0-.4-1.056,1.593,1.593,0,0,0-1.169-.393,1.844,1.844,0,0,0-1.135.342,1.007,1.007,0,0,0-.458.827H10.008a1.745,1.745,0,0,1,.393-1.07,2.683,2.683,0,0,1,1.066-.817,3.588,3.588,0,0,1,1.48-.3,2.924,2.924,0,0,1,2,.639,2.306,2.306,0,0,1,.752,1.76v3.4a4.162,4.162,0,0,0,.26,1.62V0Zm-2.1-.964a2.223,2.223,0,0,0,1.128-.308,1.861,1.861,0,0,0,.772-.8V-3.589h-.991q-2.324,0-2.324,1.36a1.151,1.151,0,0,0,.4.93A1.524,1.524,0,0,0,12.537-.964ZM18.881-7.4l.041.93a2.7,2.7,0,0,1,2.215-1.066q2.345,0,2.365,2.646V0H22.237V-4.895a1.7,1.7,0,0,0-.366-1.183,1.466,1.466,0,0,0-1.118-.383,1.825,1.825,0,0,0-1.08.328,2.228,2.228,0,0,0-.725.861V0H17.685V-7.4Zm4.184-2.885a1.7,1.7,0,0,1-.42,1.2,1.365,1.365,0,0,1-1.049.458,1.54,1.54,0,0,1-.485-.068,2.619,2.619,0,0,1-.537-.28,2.324,2.324,0,0,0-.479-.256,1.171,1.171,0,0,0-.338-.044.627.627,0,0,0-.479.215.781.781,0,0,0-.2.55l-.848-.048a1.784,1.784,0,0,1,.414-1.21,1.326,1.326,0,0,1,1.049-.479,1.275,1.275,0,0,1,.431.068,3.139,3.139,0,0,1,.52.267,3.057,3.057,0,0,0,.5.26,1.154,1.154,0,0,0,.386.062.612.612,0,0,0,.489-.232.815.815,0,0,0,.195-.54ZM29.976,0A2.657,2.657,0,0,1,29.8-.779a2.822,2.822,0,0,1-2.105.916A2.611,2.611,0,0,1,25.9-.482a2,2,0,0,1-.7-1.569,2.091,2.091,0,0,1,.878-1.794,4.142,4.142,0,0,1,2.471-.639h1.23v-.581a1.42,1.42,0,0,0-.4-1.056,1.593,1.593,0,0,0-1.169-.393,1.844,1.844,0,0,0-1.135.342,1.007,1.007,0,0,0-.458.827H25.348a1.745,1.745,0,0,1,.393-1.07,2.683,2.683,0,0,1,1.066-.817,3.588,3.588,0,0,1,1.48-.3,2.924,2.924,0,0,1,2,.639,2.306,2.306,0,0,1,.752,1.76v3.4a4.162,4.162,0,0,0,.26,1.62V0Zm-2.1-.964A2.223,2.223,0,0,0,29-1.271a1.861,1.861,0,0,0,.772-.8V-3.589h-.991q-2.324,0-2.324,1.36a1.151,1.151,0,0,0,.4.93A1.524,1.524,0,0,0,27.877-.964Z" transform="translate(412.757 1875.649)" fill="#0c1d30"/>
    <path id="Trazado_203013" data-name="Trazado 203013" d="M4.45-1.743l2.844-8.21H8.729L5.038,0H3.876L.191-9.953H1.62ZM14.116,0a2.657,2.657,0,0,1-.178-.779,2.822,2.822,0,0,1-2.105.916,2.611,2.611,0,0,1-1.794-.619,2,2,0,0,1-.7-1.569,2.091,2.091,0,0,1,.878-1.794,4.142,4.142,0,0,1,2.471-.639h1.23v-.581a1.42,1.42,0,0,0-.4-1.056,1.593,1.593,0,0,0-1.169-.393,1.844,1.844,0,0,0-1.135.342,1.007,1.007,0,0,0-.458.827H9.488a1.745,1.745,0,0,1,.393-1.07,2.683,2.683,0,0,1,1.066-.817,3.588,3.588,0,0,1,1.48-.3,2.924,2.924,0,0,1,2,.639,2.306,2.306,0,0,1,.752,1.76v3.4a4.162,4.162,0,0,0,.26,1.62V0Zm-2.1-.964a2.223,2.223,0,0,0,1.128-.308,1.861,1.861,0,0,0,.772-.8V-3.589h-.991q-2.324,0-2.324,1.36a1.151,1.151,0,0,0,.4.93A1.524,1.524,0,0,0,12.018-.964Zm11.4-2.652A4.429,4.429,0,0,1,22.641-.9,2.476,2.476,0,0,1,20.549.137,2.713,2.713,0,0,1,18.43-.718V2.844H17.165V-7.4H18.32l.062.82a2.605,2.605,0,0,1,2.146-.957,2.522,2.522,0,0,1,2.109,1,4.477,4.477,0,0,1,.776,2.8ZM22.148-3.76a3.268,3.268,0,0,0-.533-1.976,1.718,1.718,0,0,0-1.463-.725A1.859,1.859,0,0,0,18.43-5.441v3.534A1.863,1.863,0,0,0,20.166-.9a1.71,1.71,0,0,0,1.446-.721A3.567,3.567,0,0,0,22.148-3.76Zm2.536-.007a4.369,4.369,0,0,1,.427-1.955A3.187,3.187,0,0,1,26.3-7.062a3.238,3.238,0,0,1,1.74-.472,3.119,3.119,0,0,1,2.444,1.046,4.024,4.024,0,0,1,.933,2.782v.089A4.407,4.407,0,0,1,31-1.678,3.14,3.14,0,0,1,29.822-.342a3.275,3.275,0,0,1-1.767.479A3.111,3.111,0,0,1,25.618-.909a4,4,0,0,1-.933-2.769Zm1.271.15a3.164,3.164,0,0,0,.571,1.976A1.827,1.827,0,0,0,28.055-.9a1.816,1.816,0,0,0,1.531-.755,3.46,3.46,0,0,0,.567-2.116,3.159,3.159,0,0,0-.578-1.972,1.836,1.836,0,0,0-1.535-.755,1.816,1.816,0,0,0-1.511.745A3.434,3.434,0,0,0,25.956-3.616ZM36.579-6.262a3.79,3.79,0,0,0-.622-.048,1.667,1.667,0,0,0-1.688,1.06V0H33V-7.4h1.23l.021.854a1.969,1.969,0,0,1,1.764-.991,1.292,1.292,0,0,1,.561.1Zm4.32,2.5A4.333,4.333,0,0,1,41.706-6.5a2.551,2.551,0,0,1,2.112-1.036,2.565,2.565,0,0,1,2.058.889V-10.5h1.265V0H45.979l-.062-.793A2.575,2.575,0,0,1,43.8.137a2.526,2.526,0,0,1-2.1-1.053,4.382,4.382,0,0,1-.81-2.748Zm1.265.144a3.281,3.281,0,0,0,.52,1.969,1.68,1.68,0,0,0,1.436.711,1.845,1.845,0,0,0,1.757-1.08v-3.4A1.859,1.859,0,0,0,44.133-6.46a1.687,1.687,0,0,0-1.449.718A3.612,3.612,0,0,0,42.164-3.616ZM52.172.137a3.232,3.232,0,0,1-2.447-.988,3.666,3.666,0,0,1-.943-2.642v-.232a4.438,4.438,0,0,1,.42-1.965,3.28,3.28,0,0,1,1.176-1.354,2.956,2.956,0,0,1,1.637-.489,2.77,2.77,0,0,1,2.242.95,4.114,4.114,0,0,1,.8,2.721v.526H50.046a2.629,2.629,0,0,0,.639,1.767A2.009,2.009,0,0,0,52.24-.9a2.2,2.2,0,0,0,1.135-.273,2.851,2.851,0,0,0,.813-.725l.772.6A3.106,3.106,0,0,1,52.172.137Zm-.157-6.631a1.687,1.687,0,0,0-1.285.557,2.708,2.708,0,0,0-.643,1.562h3.705v-.1a2.409,2.409,0,0,0-.52-1.494A1.588,1.588,0,0,0,52.015-6.494ZM64.552,0a2.657,2.657,0,0,1-.178-.779,2.822,2.822,0,0,1-2.105.916,2.611,2.611,0,0,1-1.794-.619,2,2,0,0,1-.7-1.569,2.091,2.091,0,0,1,.878-1.794,4.142,4.142,0,0,1,2.471-.639h1.23v-.581a1.42,1.42,0,0,0-.4-1.056,1.593,1.593,0,0,0-1.169-.393,1.844,1.844,0,0,0-1.135.342,1.007,1.007,0,0,0-.458.827H59.924a1.745,1.745,0,0,1,.393-1.07,2.683,2.683,0,0,1,1.066-.817,3.588,3.588,0,0,1,1.48-.3,2.924,2.924,0,0,1,2,.639,2.306,2.306,0,0,1,.752,1.76v3.4a4.162,4.162,0,0,0,.26,1.62V0Zm-2.1-.964a2.223,2.223,0,0,0,1.128-.308,1.861,1.861,0,0,0,.772-.8V-3.589h-.991q-2.324,0-2.324,1.36a1.151,1.151,0,0,0,.4.93A1.524,1.524,0,0,0,62.453-.964ZM67.3-3.76a4.347,4.347,0,0,1,.8-2.751,2.558,2.558,0,0,1,2.119-1.022,2.544,2.544,0,0,1,2.112.957l.062-.82h1.155V-.178A3.009,3.009,0,0,1,72.7,2.085a3.141,3.141,0,0,1-2.287.827,3.8,3.8,0,0,1-1.565-.342,2.7,2.7,0,0,1-1.169-.937l.656-.759a2.473,2.473,0,0,0,1.989,1,1.938,1.938,0,0,0,1.439-.52A1.986,1.986,0,0,0,72.276-.1V-.738a2.6,2.6,0,0,1-2.071.875A2.527,2.527,0,0,1,68.1-.909,4.571,4.571,0,0,1,67.3-3.76Zm1.271.144a3.316,3.316,0,0,0,.513,1.965,1.666,1.666,0,0,0,1.436.714,1.852,1.852,0,0,0,1.757-1.087V-5.4a1.874,1.874,0,0,0-1.743-1.06,1.681,1.681,0,0,0-1.442.718A3.612,3.612,0,0,0,68.571-3.616ZM80.021-.731a2.686,2.686,0,0,1-2.167.868,2.3,2.3,0,0,1-1.8-.687,2.974,2.974,0,0,1-.625-2.034V-7.4h1.265v4.778q0,1.682,1.367,1.682a1.893,1.893,0,0,0,1.928-1.08V-7.4h1.265V0h-1.2ZM87.739,0a2.657,2.657,0,0,1-.178-.779,2.822,2.822,0,0,1-2.105.916,2.611,2.611,0,0,1-1.794-.619,2,2,0,0,1-.7-1.569,2.091,2.091,0,0,1,.878-1.794,4.141,4.141,0,0,1,2.471-.639h1.23v-.581a1.42,1.42,0,0,0-.4-1.056,1.593,1.593,0,0,0-1.169-.393,1.844,1.844,0,0,0-1.135.342,1.007,1.007,0,0,0-.458.827H83.111a1.745,1.745,0,0,1,.393-1.07,2.683,2.683,0,0,1,1.066-.817,3.588,3.588,0,0,1,1.48-.3,2.924,2.924,0,0,1,2,.639,2.306,2.306,0,0,1,.752,1.76v3.4a4.162,4.162,0,0,0,.26,1.62V0Zm-2.1-.964a2.223,2.223,0,0,0,1.128-.308,1.861,1.861,0,0,0,.772-.8V-3.589H86.55q-2.324,0-2.324,1.36a1.151,1.151,0,0,0,.4.93A1.524,1.524,0,0,0,85.641-.964Z" transform="translate(823.473 2014.008)" fill="#0c1d30"/>
    <path id="Trazado_202993" data-name="Trazado 202993" d="M6.781-4.6H2.468v3.527H7.479V0H1.155V-9.953H7.41V-8.88H2.468v3.206H6.781Zm4.4,2.885L13.009-7.4H14.3L11.648,0h-.964L8-7.4H9.3ZM19.981,0A2.657,2.657,0,0,1,19.8-.779,2.822,2.822,0,0,1,17.7.137,2.611,2.611,0,0,1,15.9-.482a2,2,0,0,1-.7-1.569,2.091,2.091,0,0,1,.878-1.794,4.142,4.142,0,0,1,2.471-.639h1.23v-.581a1.42,1.42,0,0,0-.4-1.056,1.593,1.593,0,0,0-1.169-.393,1.844,1.844,0,0,0-1.135.342,1.007,1.007,0,0,0-.458.827H15.354a1.745,1.745,0,0,1,.393-1.07,2.683,2.683,0,0,1,1.066-.817,3.588,3.588,0,0,1,1.48-.3,2.924,2.924,0,0,1,2,.639,2.306,2.306,0,0,1,.752,1.76v3.4a4.162,4.162,0,0,0,.26,1.62V0Zm-2.1-.964a2.223,2.223,0,0,0,1.128-.308,1.861,1.861,0,0,0,.772-.8V-3.589h-.991q-2.324,0-2.324,1.36a1.151,1.151,0,0,0,.4.93A1.524,1.524,0,0,0,17.883-.964Zm11.4-2.652A4.429,4.429,0,0,1,28.506-.9,2.476,2.476,0,0,1,26.414.137a2.713,2.713,0,0,1-2.119-.854V2.844H23.03V-7.4h1.155l.062.82a2.605,2.605,0,0,1,2.146-.957,2.522,2.522,0,0,1,2.109,1,4.477,4.477,0,0,1,.776,2.8ZM28.014-3.76a3.268,3.268,0,0,0-.533-1.976,1.718,1.718,0,0,0-1.463-.725,1.859,1.859,0,0,0-1.723,1.019v3.534A1.863,1.863,0,0,0,26.031-.9a1.71,1.71,0,0,0,1.446-.721A3.567,3.567,0,0,0,28.014-3.76Zm2.536-.007a4.369,4.369,0,0,1,.427-1.955,3.187,3.187,0,0,1,1.189-1.34,3.238,3.238,0,0,1,1.74-.472A3.119,3.119,0,0,1,36.35-6.487a4.024,4.024,0,0,1,.933,2.782v.089a4.407,4.407,0,0,1-.414,1.938A3.14,3.14,0,0,1,35.687-.342,3.275,3.275,0,0,1,33.92.137,3.111,3.111,0,0,1,31.483-.909a4,4,0,0,1-.933-2.769Zm1.271.15a3.164,3.164,0,0,0,.571,1.976A1.827,1.827,0,0,0,33.92-.9a1.816,1.816,0,0,0,1.531-.755,3.46,3.46,0,0,0,.567-2.116,3.159,3.159,0,0,0-.578-1.972,1.836,1.836,0,0,0-1.535-.755,1.816,1.816,0,0,0-1.511.745A3.434,3.434,0,0,0,31.821-3.616ZM42.444-6.262a3.79,3.79,0,0,0-.622-.048,1.667,1.667,0,0,0-1.688,1.06V0H38.869V-7.4H40.1l.021.854a1.969,1.969,0,0,1,1.764-.991,1.292,1.292,0,0,1,.561.1ZM47.9,0a2.657,2.657,0,0,1-.178-.779,2.822,2.822,0,0,1-2.105.916,2.611,2.611,0,0,1-1.794-.619,2,2,0,0,1-.7-1.569A2.091,2.091,0,0,1,44-3.845a4.142,4.142,0,0,1,2.471-.639H47.7v-.581a1.42,1.42,0,0,0-.4-1.056,1.593,1.593,0,0,0-1.169-.393A1.844,1.844,0,0,0,45-6.173a1.007,1.007,0,0,0-.458.827H43.271a1.745,1.745,0,0,1,.393-1.07,2.683,2.683,0,0,1,1.066-.817,3.588,3.588,0,0,1,1.48-.3,2.924,2.924,0,0,1,2,.639,2.306,2.306,0,0,1,.752,1.76v3.4a4.162,4.162,0,0,0,.26,1.62V0ZM45.8-.964a2.223,2.223,0,0,0,1.128-.308,1.861,1.861,0,0,0,.772-.8V-3.589H46.71q-2.324,0-2.324,1.36a1.151,1.151,0,0,0,.4.93A1.524,1.524,0,0,0,45.8-.964ZM53.915-.9a1.822,1.822,0,0,0,1.183-.41,1.443,1.443,0,0,0,.561-1.025h1.2a2.293,2.293,0,0,1-.437,1.21,2.881,2.881,0,0,1-1.077.916,3.107,3.107,0,0,1-1.425.342,3.047,3.047,0,0,1-2.4-1.008A4.016,4.016,0,0,1,50.62-3.63v-.212a4.453,4.453,0,0,1,.4-1.921,3.02,3.02,0,0,1,1.138-1.306,3.233,3.233,0,0,1,1.753-.465,2.966,2.966,0,0,1,2.068.745,2.663,2.663,0,0,1,.878,1.935h-1.2a1.743,1.743,0,0,0-.543-1.179,1.691,1.691,0,0,0-1.207-.461,1.77,1.77,0,0,0-1.494.694,3.259,3.259,0,0,0-.53,2.006v.239a3.194,3.194,0,0,0,.526,1.969A1.779,1.779,0,0,0,53.915-.9ZM59.65,0H58.386V-7.4H59.65ZM58.283-9.358a.755.755,0,0,1,.188-.52.706.706,0,0,1,.557-.212.717.717,0,0,1,.561.212.747.747,0,0,1,.191.52.722.722,0,0,1-.191.513.73.73,0,0,1-.561.205.718.718,0,0,1-.557-.205A.73.73,0,0,1,58.283-9.358Zm3.056,5.592a4.369,4.369,0,0,1,.427-1.955,3.187,3.187,0,0,1,1.189-1.34,3.238,3.238,0,0,1,1.74-.472,3.119,3.119,0,0,1,2.444,1.046,4.024,4.024,0,0,1,.933,2.782v.089a4.407,4.407,0,0,1-.414,1.938A3.14,3.14,0,0,1,66.476-.342a3.275,3.275,0,0,1-1.767.479A3.111,3.111,0,0,1,62.272-.909a4,4,0,0,1-.933-2.769Zm1.271.15a3.164,3.164,0,0,0,.571,1.976A1.827,1.827,0,0,0,64.709-.9a1.816,1.816,0,0,0,1.531-.755,3.46,3.46,0,0,0,.567-2.116,3.159,3.159,0,0,0-.578-1.972A1.836,1.836,0,0,0,64.7-6.494a1.816,1.816,0,0,0-1.511.745A3.434,3.434,0,0,0,62.61-3.616Zm2.659-6.87H66.8l-1.832,2.01-1.019,0ZM70.854-7.4l.041.93A2.7,2.7,0,0,1,73.11-7.533q2.345,0,2.365,2.646V0H74.211V-4.895a1.7,1.7,0,0,0-.366-1.183,1.466,1.466,0,0,0-1.118-.383,1.825,1.825,0,0,0-1.08.328,2.228,2.228,0,0,0-.725.861V0H69.658V-7.4Z" transform="translate(831.744 2096.451)" fill="#0c1d30"/>
    <path id="Trazado_202983" data-name="Trazado 202983" d="M-47.093-3.158A3.662,3.662,0,0,1-48.258-.721a3.82,3.82,0,0,1-2.608.858,3.507,3.507,0,0,1-2.827-1.265,5.088,5.088,0,0,1-1.063-3.384v-.957a5.671,5.671,0,0,1,.5-2.44,3.7,3.7,0,0,1,1.4-1.617,3.911,3.911,0,0,1,2.105-.564,3.6,3.6,0,0,1,2.543.885,3.706,3.706,0,0,1,1.114,2.451h-1.319a2.86,2.86,0,0,0-.742-1.728,2.244,2.244,0,0,0-1.6-.535,2.348,2.348,0,0,0-1.972.93,4.271,4.271,0,0,0-.714,2.648v.965a4.391,4.391,0,0,0,.677,2.579,2.187,2.187,0,0,0,1.894.958,2.526,2.526,0,0,0,1.678-.5,2.75,2.75,0,0,0,.776-1.726Zm6.159,2.427A2.686,2.686,0,0,1-43.1.137,2.3,2.3,0,0,1-44.9-.55a2.974,2.974,0,0,1-.625-2.034V-7.4h1.265v4.778q0,1.682,1.367,1.682a1.893,1.893,0,0,0,1.928-1.08V-7.4H-39.7V0h-1.2ZM-33.216,0a2.657,2.657,0,0,1-.178-.779A2.822,2.822,0,0,1-35.5.137a2.611,2.611,0,0,1-1.794-.619,2,2,0,0,1-.7-1.569,2.091,2.091,0,0,1,.878-1.794,4.142,4.142,0,0,1,2.471-.639h1.23v-.581a1.42,1.42,0,0,0-.4-1.056,1.593,1.593,0,0,0-1.169-.393,1.844,1.844,0,0,0-1.135.342,1.007,1.007,0,0,0-.458.827h-1.271a1.745,1.745,0,0,1,.393-1.07,2.683,2.683,0,0,1,1.066-.817,3.588,3.588,0,0,1,1.48-.3,2.924,2.924,0,0,1,2,.639,2.306,2.306,0,0,1,.752,1.76v3.4a4.162,4.162,0,0,0,.26,1.62V0Zm-2.1-.964a2.223,2.223,0,0,0,1.128-.308,1.861,1.861,0,0,0,.772-.8V-3.589h-.991q-2.324,0-2.324,1.36a1.151,1.151,0,0,0,.4.93A1.524,1.524,0,0,0-35.314-.964Zm8.723-5.3a3.79,3.79,0,0,0-.622-.048A1.667,1.667,0,0,0-28.9-5.25V0h-1.265V-7.4h1.23l.021.854a1.969,1.969,0,0,1,1.764-.991,1.292,1.292,0,0,1,.561.1Zm3.22-2.926V-7.4h1.381v.978h-1.381v4.593a1.027,1.027,0,0,0,.185.667.777.777,0,0,0,.629.222,3.062,3.062,0,0,0,.6-.082V0a3.688,3.688,0,0,1-.971.136,1.575,1.575,0,0,1-1.278-.513,2.2,2.2,0,0,1-.431-1.456V-6.419h-1.347V-7.4h1.347V-9.187Zm2.386,5.421a4.369,4.369,0,0,1,.427-1.955,3.187,3.187,0,0,1,1.189-1.34,3.238,3.238,0,0,1,1.74-.472,3.119,3.119,0,0,1,2.444,1.046,4.024,4.024,0,0,1,.933,2.782v.089a4.407,4.407,0,0,1-.414,1.938A3.14,3.14,0,0,1-15.849-.342a3.275,3.275,0,0,1-1.767.479A3.111,3.111,0,0,1-20.053-.909a4,4,0,0,1-.933-2.769Zm1.271.15a3.164,3.164,0,0,0,.571,1.976A1.827,1.827,0,0,0-17.616-.9a1.816,1.816,0,0,0,1.531-.755,3.46,3.46,0,0,0,.567-2.116A3.159,3.159,0,0,0-16.1-5.739a1.836,1.836,0,0,0-1.535-.755,1.816,1.816,0,0,0-1.511.745A3.434,3.434,0,0,0-19.715-3.616ZM-9.509-3.76A4.333,4.333,0,0,1-8.7-6.5,2.551,2.551,0,0,1-6.59-7.533a2.565,2.565,0,0,1,2.058.889V-10.5h1.265V0H-4.43l-.062-.793A2.575,2.575,0,0,1-6.6.137,2.526,2.526,0,0,1-8.7-.916a4.382,4.382,0,0,1-.81-2.748Zm1.265.144a3.281,3.281,0,0,0,.52,1.969,1.68,1.68,0,0,0,1.436.711,1.845,1.845,0,0,0,1.757-1.08v-3.4A1.859,1.859,0,0,0-6.275-6.46a1.687,1.687,0,0,0-1.449.718A3.612,3.612,0,0,0-8.244-3.616ZM1.764.137A3.232,3.232,0,0,1-.684-.851a3.666,3.666,0,0,1-.943-2.642v-.232a4.438,4.438,0,0,1,.42-1.965A3.28,3.28,0,0,1-.031-7.044a2.956,2.956,0,0,1,1.637-.489,2.77,2.77,0,0,1,2.242.95,4.114,4.114,0,0,1,.8,2.721v.526H-.362A2.629,2.629,0,0,0,.277-1.569,2.009,2.009,0,0,0,1.832-.9a2.2,2.2,0,0,0,1.135-.273,2.851,2.851,0,0,0,.813-.725l.772.6A3.106,3.106,0,0,1,1.764.137ZM1.606-6.494a1.687,1.687,0,0,0-1.285.557A2.708,2.708,0,0,0-.321-4.375H3.384v-.1a2.409,2.409,0,0,0-.52-1.494A1.588,1.588,0,0,0,1.606-6.494Zm9.16-.9.034.82A2.732,2.732,0,0,1,13-7.533a2.115,2.115,0,0,1,2.112,1.189,2.8,2.8,0,0,1,.96-.861,2.837,2.837,0,0,1,1.4-.328q2.434,0,2.475,2.577V0H18.676V-4.881a1.7,1.7,0,0,0-.362-1.186A1.6,1.6,0,0,0,17.1-6.46a1.677,1.677,0,0,0-1.169.42,1.706,1.706,0,0,0-.54,1.131V0H14.116V-4.847A1.411,1.411,0,0,0,12.537-6.46a1.692,1.692,0,0,0-1.7,1.06V0H9.57V-7.4Zm10.746,3.63a4.369,4.369,0,0,1,.427-1.955,3.187,3.187,0,0,1,1.189-1.34,3.238,3.238,0,0,1,1.74-.472,3.119,3.119,0,0,1,2.444,1.046,4.024,4.024,0,0,1,.933,2.782v.089a4.407,4.407,0,0,1-.414,1.938A3.14,3.14,0,0,1,26.65-.342a3.275,3.275,0,0,1-1.767.479A3.111,3.111,0,0,1,22.446-.909a4,4,0,0,1-.933-2.769Zm1.271.15a3.164,3.164,0,0,0,.571,1.976A1.827,1.827,0,0,0,24.883-.9a1.816,1.816,0,0,0,1.531-.755,3.46,3.46,0,0,0,.567-2.116A3.159,3.159,0,0,0,26.4-5.739a1.836,1.836,0,0,0-1.535-.755,1.816,1.816,0,0,0-1.511.745A3.434,3.434,0,0,0,22.784-3.616ZM31.206,0H29.941V-10.5h1.265Zm1.716-3.76A4.333,4.333,0,0,1,33.729-6.5a2.551,2.551,0,0,1,2.112-1.036,2.565,2.565,0,0,1,2.058.889V-10.5h1.265V0H38l-.062-.793a2.575,2.575,0,0,1-2.112.93,2.526,2.526,0,0,1-2.1-1.053,4.382,4.382,0,0,1-.81-2.748Zm1.265.144a3.281,3.281,0,0,0,.52,1.969,1.68,1.68,0,0,0,1.436.711A1.845,1.845,0,0,0,37.9-2.017v-3.4A1.859,1.859,0,0,0,36.155-6.46a1.687,1.687,0,0,0-1.449.718A3.612,3.612,0,0,0,34.187-3.616ZM44.194.137a3.232,3.232,0,0,1-2.447-.988A3.666,3.666,0,0,1,40.8-3.493v-.232a4.438,4.438,0,0,1,.42-1.965A3.28,3.28,0,0,1,42.4-7.044a2.956,2.956,0,0,1,1.637-.489,2.77,2.77,0,0,1,2.242.95,4.114,4.114,0,0,1,.8,2.721v.526H42.068a2.629,2.629,0,0,0,.639,1.767A2.009,2.009,0,0,0,44.263-.9,2.2,2.2,0,0,0,45.4-1.169a2.851,2.851,0,0,0,.813-.725l.772.6A3.106,3.106,0,0,1,44.194.137Zm-.157-6.631a1.687,1.687,0,0,0-1.285.557,2.708,2.708,0,0,0-.643,1.562h3.705v-.1a2.409,2.409,0,0,0-.52-1.494A1.588,1.588,0,0,0,44.037-6.494Zm4.17,2.728a4.369,4.369,0,0,1,.427-1.955,3.187,3.187,0,0,1,1.189-1.34,3.238,3.238,0,0,1,1.74-.472,3.119,3.119,0,0,1,2.444,1.046,4.024,4.024,0,0,1,.933,2.782v.089a4.407,4.407,0,0,1-.414,1.938A3.14,3.14,0,0,1,53.344-.342a3.275,3.275,0,0,1-1.767.479A3.111,3.111,0,0,1,49.14-.909a4,4,0,0,1-.933-2.769Zm1.271.15a3.164,3.164,0,0,0,.571,1.976A1.827,1.827,0,0,0,51.577-.9a1.816,1.816,0,0,0,1.531-.755,3.46,3.46,0,0,0,.567-2.116A3.159,3.159,0,0,0,53.1-5.739a1.836,1.836,0,0,0-1.535-.755,1.816,1.816,0,0,0-1.511.745A3.434,3.434,0,0,0,49.479-3.616ZM-36.791,13.24a4.333,4.333,0,0,1,.807-2.738,2.551,2.551,0,0,1,2.112-1.036,2.565,2.565,0,0,1,2.058.889V6.5h1.265V17h-1.162l-.062-.793a2.575,2.575,0,0,1-2.112.93,2.526,2.526,0,0,1-2.1-1.053,4.382,4.382,0,0,1-.81-2.748Zm1.265.144a3.281,3.281,0,0,0,.52,1.969,1.68,1.68,0,0,0,1.436.711,1.845,1.845,0,0,0,1.757-1.08v-3.4a1.859,1.859,0,0,0-1.743-1.046,1.687,1.687,0,0,0-1.449.718A3.612,3.612,0,0,0-35.526,13.384Zm10.008,3.753a3.232,3.232,0,0,1-2.447-.988,3.666,3.666,0,0,1-.943-2.642v-.232a4.438,4.438,0,0,1,.42-1.965,3.28,3.28,0,0,1,1.176-1.354,2.956,2.956,0,0,1,1.637-.489,2.77,2.77,0,0,1,2.242.95,4.114,4.114,0,0,1,.8,2.721v.526h-5.011a2.629,2.629,0,0,0,.639,1.767,2.009,2.009,0,0,0,1.555.673,2.2,2.2,0,0,0,1.135-.273,2.851,2.851,0,0,0,.813-.725l.772.6A3.106,3.106,0,0,1-25.519,17.137Zm-.157-6.631a1.687,1.687,0,0,0-1.285.557,2.708,2.708,0,0,0-.643,1.562H-23.9v-.1a2.409,2.409,0,0,0-.52-1.494A1.588,1.588,0,0,0-25.676,10.506ZM-16.331,17H-17.6V6.5h1.265Zm6.59,0a2.657,2.657,0,0,1-.178-.779,2.822,2.822,0,0,1-2.105.916,2.611,2.611,0,0,1-1.794-.619,2,2,0,0,1-.7-1.569,2.091,2.091,0,0,1,.878-1.794,4.142,4.142,0,0,1,2.471-.639h1.23v-.581a1.42,1.42,0,0,0-.4-1.056,1.593,1.593,0,0,0-1.169-.393,1.844,1.844,0,0,0-1.135.342,1.007,1.007,0,0,0-.458.827h-1.271a1.745,1.745,0,0,1,.393-1.07,2.683,2.683,0,0,1,1.066-.817,3.588,3.588,0,0,1,1.48-.3,2.924,2.924,0,0,1,2,.639,2.306,2.306,0,0,1,.752,1.76v3.4a4.162,4.162,0,0,0,.26,1.62V17Zm-2.1-.964a2.223,2.223,0,0,0,1.128-.308,1.861,1.861,0,0,0,.772-.8V13.411h-.991q-2.324,0-2.324,1.36a1.151,1.151,0,0,0,.4.93A1.524,1.524,0,0,0-11.84,16.036ZM3.021,13.384A4.429,4.429,0,0,1,2.249,16.1,2.476,2.476,0,0,1,.157,17.137a2.713,2.713,0,0,1-2.119-.854v3.562H-3.227V9.6h1.155l.062.82A2.605,2.605,0,0,1,.137,9.467a2.522,2.522,0,0,1,2.109,1,4.477,4.477,0,0,1,.776,2.8ZM1.757,13.24a3.268,3.268,0,0,0-.533-1.976A1.718,1.718,0,0,0-.239,10.54a1.859,1.859,0,0,0-1.723,1.019v3.534A1.863,1.863,0,0,0-.226,16.1a1.71,1.71,0,0,0,1.446-.721A3.567,3.567,0,0,0,1.757,13.24ZM9.194,17a2.657,2.657,0,0,1-.178-.779,2.822,2.822,0,0,1-2.105.916,2.611,2.611,0,0,1-1.794-.619,2,2,0,0,1-.7-1.569,2.091,2.091,0,0,1,.878-1.794,4.142,4.142,0,0,1,2.471-.639H9v-.581a1.42,1.42,0,0,0-.4-1.056,1.593,1.593,0,0,0-1.169-.393,1.844,1.844,0,0,0-1.135.342,1.007,1.007,0,0,0-.458.827H4.566a1.745,1.745,0,0,1,.393-1.07,2.683,2.683,0,0,1,1.066-.817,3.588,3.588,0,0,1,1.48-.3,2.924,2.924,0,0,1,2,.639,2.306,2.306,0,0,1,.752,1.76v3.4a4.162,4.162,0,0,0,.26,1.62V17Zm-2.1-.964a2.223,2.223,0,0,0,1.128-.308,1.861,1.861,0,0,0,.772-.8V13.411H8q-2.324,0-2.324,1.36a1.151,1.151,0,0,0,.4.93A1.524,1.524,0,0,0,7.1,16.036ZM13.439,9.6l.041.93A2.7,2.7,0,0,1,15.7,9.467q2.345,0,2.365,2.646V17H16.8V12.105a1.7,1.7,0,0,0-.366-1.183,1.466,1.466,0,0,0-1.118-.383,1.825,1.825,0,0,0-1.08.328,2.228,2.228,0,0,0-.725.861V17H12.243V9.6Zm9.6,7.533a3.232,3.232,0,0,1-2.447-.988,3.666,3.666,0,0,1-.943-2.642v-.232a4.438,4.438,0,0,1,.42-1.965,3.28,3.28,0,0,1,1.176-1.354,2.956,2.956,0,0,1,1.637-.489,2.77,2.77,0,0,1,2.242.95,4.114,4.114,0,0,1,.8,2.721v.526H20.911a2.629,2.629,0,0,0,.639,1.767,2.009,2.009,0,0,0,1.555.673,2.2,2.2,0,0,0,1.135-.273,2.851,2.851,0,0,0,.813-.725l.772.6A3.106,3.106,0,0,1,23.037,17.137Zm-.157-6.631a1.687,1.687,0,0,0-1.285.557,2.708,2.708,0,0,0-.643,1.562h3.705v-.1a2.409,2.409,0,0,0-.52-1.494A1.588,1.588,0,0,0,22.88,10.506ZM28.759,17H27.494V6.5h1.265Zm6.59,0a2.657,2.657,0,0,1-.178-.779,2.822,2.822,0,0,1-2.105.916,2.611,2.611,0,0,1-1.794-.619,2,2,0,0,1-.7-1.569,2.091,2.091,0,0,1,.878-1.794,4.142,4.142,0,0,1,2.471-.639h1.23v-.581a1.42,1.42,0,0,0-.4-1.056,1.593,1.593,0,0,0-1.169-.393,1.844,1.844,0,0,0-1.135.342,1.007,1.007,0,0,0-.458.827H30.721a1.745,1.745,0,0,1,.393-1.07,2.683,2.683,0,0,1,1.066-.817,3.588,3.588,0,0,1,1.48-.3,2.924,2.924,0,0,1,2,.639,2.306,2.306,0,0,1,.752,1.76v3.4a4.162,4.162,0,0,0,.26,1.62V17Zm-2.1-.964a2.223,2.223,0,0,0,1.128-.308,1.861,1.861,0,0,0,.772-.8V13.411h-.991q-2.324,0-2.324,1.36a1.151,1.151,0,0,0,.4.93A1.524,1.524,0,0,0,33.25,16.036Z" transform="translate(917.039 2397.576)" fill="#0c1d30"/>
    <path id="Trazado_202994" data-name="Trazado 202994" d="M8.477-3.158A3.662,3.662,0,0,1,7.311-.721,3.82,3.82,0,0,1,4.7.137,3.507,3.507,0,0,1,1.876-1.128,5.088,5.088,0,0,1,.813-4.512v-.957a5.671,5.671,0,0,1,.5-2.44,3.7,3.7,0,0,1,1.4-1.617,3.911,3.911,0,0,1,2.105-.564A3.6,3.6,0,0,1,7.362-9.2,3.706,3.706,0,0,1,8.477-6.754H7.157a2.86,2.86,0,0,0-.742-1.728,2.244,2.244,0,0,0-1.6-.535,2.348,2.348,0,0,0-1.972.93,4.271,4.271,0,0,0-.714,2.648v.965A4.391,4.391,0,0,0,2.81-1.894,2.187,2.187,0,0,0,4.7-.937a2.526,2.526,0,0,0,1.678-.5,2.75,2.75,0,0,0,.776-1.726Zm1.258-.608a4.369,4.369,0,0,1,.427-1.955,3.187,3.187,0,0,1,1.189-1.34,3.238,3.238,0,0,1,1.74-.472,3.119,3.119,0,0,1,2.444,1.046,4.024,4.024,0,0,1,.933,2.782v.089a4.407,4.407,0,0,1-.414,1.938A3.14,3.14,0,0,1,14.872-.342,3.275,3.275,0,0,1,13.1.137,3.111,3.111,0,0,1,10.667-.909a4,4,0,0,1-.933-2.769Zm1.271.15a3.164,3.164,0,0,0,.571,1.976A1.827,1.827,0,0,0,13.1-.9a1.816,1.816,0,0,0,1.531-.755A3.46,3.46,0,0,0,15.2-3.767a3.159,3.159,0,0,0-.578-1.972,1.836,1.836,0,0,0-1.535-.755,1.816,1.816,0,0,0-1.511.745A3.434,3.434,0,0,0,11.006-3.616ZM19.25-7.4l.041.93a2.7,2.7,0,0,1,2.215-1.066q2.345,0,2.365,2.646V0H22.606V-4.895a1.7,1.7,0,0,0-.366-1.183,1.466,1.466,0,0,0-1.118-.383,1.825,1.825,0,0,0-1.08.328,2.228,2.228,0,0,0-.725.861V0H18.054V-7.4Zm9.5,6.5a1.822,1.822,0,0,0,1.183-.41,1.443,1.443,0,0,0,.561-1.025h1.2a2.293,2.293,0,0,1-.437,1.21,2.881,2.881,0,0,1-1.077.916,3.107,3.107,0,0,1-1.425.342,3.047,3.047,0,0,1-2.4-1.008A4.016,4.016,0,0,1,25.45-3.63v-.212a4.453,4.453,0,0,1,.4-1.921,3.02,3.02,0,0,1,1.138-1.306,3.233,3.233,0,0,1,1.753-.465,2.966,2.966,0,0,1,2.068.745,2.663,2.663,0,0,1,.878,1.935h-1.2a1.743,1.743,0,0,0-.543-1.179,1.691,1.691,0,0,0-1.207-.461,1.77,1.77,0,0,0-1.494.694,3.259,3.259,0,0,0-.53,2.006v.239a3.194,3.194,0,0,0,.526,1.969A1.779,1.779,0,0,0,28.745-.9ZM36.176.137a3.232,3.232,0,0,1-2.447-.988,3.666,3.666,0,0,1-.943-2.642v-.232a4.438,4.438,0,0,1,.42-1.965,3.28,3.28,0,0,1,1.176-1.354,2.956,2.956,0,0,1,1.637-.489,2.77,2.77,0,0,1,2.242.95,4.114,4.114,0,0,1,.8,2.721v.526H34.05a2.629,2.629,0,0,0,.639,1.767A2.009,2.009,0,0,0,36.244-.9a2.2,2.2,0,0,0,1.135-.273,2.851,2.851,0,0,0,.813-.725l.772.6A3.106,3.106,0,0,1,36.176.137Zm-.157-6.631a1.687,1.687,0,0,0-1.285.557,2.708,2.708,0,0,0-.643,1.562H37.8v-.1a2.409,2.409,0,0,0-.52-1.494A1.588,1.588,0,0,0,36.019-6.494Zm5.7-.9.041.93a2.7,2.7,0,0,1,2.215-1.066q2.345,0,2.365,2.646V0H45.076V-4.895a1.7,1.7,0,0,0-.366-1.183,1.466,1.466,0,0,0-1.118-.383,1.825,1.825,0,0,0-1.08.328,2.228,2.228,0,0,0-.725.861V0H40.523V-7.4Zm8.244-1.791V-7.4h1.381v.978H49.964v4.593a1.027,1.027,0,0,0,.185.667.777.777,0,0,0,.629.222,3.062,3.062,0,0,0,.6-.082V0a3.688,3.688,0,0,1-.971.136A1.575,1.575,0,0,1,49.13-.376,2.2,2.2,0,0,1,48.7-1.832V-6.419H47.353V-7.4H48.7V-9.187ZM56.4-6.262a3.79,3.79,0,0,0-.622-.048,1.667,1.667,0,0,0-1.688,1.06V0H52.821V-7.4h1.23l.021.854a1.969,1.969,0,0,1,1.764-.991,1.292,1.292,0,0,1,.561.1ZM61.852,0a2.657,2.657,0,0,1-.178-.779,2.822,2.822,0,0,1-2.105.916,2.611,2.611,0,0,1-1.794-.619,2,2,0,0,1-.7-1.569,2.091,2.091,0,0,1,.878-1.794,4.142,4.142,0,0,1,2.471-.639h1.23v-.581a1.42,1.42,0,0,0-.4-1.056,1.593,1.593,0,0,0-1.169-.393,1.844,1.844,0,0,0-1.135.342,1.007,1.007,0,0,0-.458.827H57.224a1.745,1.745,0,0,1,.393-1.07,2.683,2.683,0,0,1,1.066-.817,3.588,3.588,0,0,1,1.48-.3,2.924,2.924,0,0,1,2,.639,2.306,2.306,0,0,1,.752,1.76v3.4a4.162,4.162,0,0,0,.26,1.62V0Zm-2.1-.964a2.223,2.223,0,0,0,1.128-.308,1.861,1.861,0,0,0,.772-.8V-3.589h-.991q-2.324,0-2.324,1.36a1.151,1.151,0,0,0,.4.93A1.524,1.524,0,0,0,59.753-.964ZM67.867-.9a1.822,1.822,0,0,0,1.183-.41,1.443,1.443,0,0,0,.561-1.025h1.2a2.293,2.293,0,0,1-.437,1.21,2.882,2.882,0,0,1-1.077.916,3.107,3.107,0,0,1-1.425.342,3.047,3.047,0,0,1-2.4-1.008,4.016,4.016,0,0,1-.892-2.758v-.212a4.453,4.453,0,0,1,.4-1.921,3.02,3.02,0,0,1,1.138-1.306,3.233,3.233,0,0,1,1.753-.465,2.966,2.966,0,0,1,2.068.745,2.663,2.663,0,0,1,.878,1.935h-1.2a1.743,1.743,0,0,0-.543-1.179,1.691,1.691,0,0,0-1.207-.461,1.77,1.77,0,0,0-1.494.694,3.259,3.259,0,0,0-.53,2.006v.239a3.194,3.194,0,0,0,.526,1.969A1.779,1.779,0,0,0,67.867-.9ZM73.6,0H72.338V-7.4H73.6ZM72.235-9.358a.755.755,0,0,1,.188-.52.706.706,0,0,1,.557-.212.717.717,0,0,1,.561.212.747.747,0,0,1,.191.52.722.722,0,0,1-.191.513.73.73,0,0,1-.561.205.718.718,0,0,1-.557-.205A.73.73,0,0,1,72.235-9.358Zm3.056,5.592a4.369,4.369,0,0,1,.427-1.955,3.187,3.187,0,0,1,1.189-1.34,3.238,3.238,0,0,1,1.74-.472,3.119,3.119,0,0,1,2.444,1.046,4.024,4.024,0,0,1,.933,2.782v.089a4.407,4.407,0,0,1-.414,1.938A3.14,3.14,0,0,1,80.428-.342a3.275,3.275,0,0,1-1.767.479A3.111,3.111,0,0,1,76.224-.909a4,4,0,0,1-.933-2.769Zm1.271.15a3.164,3.164,0,0,0,.571,1.976A1.827,1.827,0,0,0,78.661-.9a1.816,1.816,0,0,0,1.531-.755,3.46,3.46,0,0,0,.567-2.116,3.159,3.159,0,0,0-.578-1.972,1.836,1.836,0,0,0-1.535-.755,1.816,1.816,0,0,0-1.511.745A3.434,3.434,0,0,0,76.563-3.616Zm2.659-6.87h1.531l-1.832,2.01-1.019,0ZM84.807-7.4l.041.93a2.7,2.7,0,0,1,2.215-1.066q2.345,0,2.365,2.646V0H88.163V-4.895A1.7,1.7,0,0,0,87.8-6.077,1.466,1.466,0,0,0,86.68-6.46a1.825,1.825,0,0,0-1.08.328,2.228,2.228,0,0,0-.725.861V0H83.61V-7.4Z" transform="translate(1090.096 2120.219)" fill="#0c1d30"/>
    <path id="Trazado_202984" data-name="Trazado 202984" d="M8.477-3.158A3.662,3.662,0,0,1,7.311-.721,3.82,3.82,0,0,1,4.7.137,3.507,3.507,0,0,1,1.876-1.128,5.088,5.088,0,0,1,.813-4.512v-.957a5.671,5.671,0,0,1,.5-2.44,3.7,3.7,0,0,1,1.4-1.617,3.911,3.911,0,0,1,2.105-.564A3.6,3.6,0,0,1,7.362-9.2,3.706,3.706,0,0,1,8.477-6.754H7.157a2.86,2.86,0,0,0-.742-1.728,2.244,2.244,0,0,0-1.6-.535,2.348,2.348,0,0,0-1.972.93,4.271,4.271,0,0,0-.714,2.648v.965A4.391,4.391,0,0,0,2.81-1.894,2.187,2.187,0,0,0,4.7-.937a2.526,2.526,0,0,0,1.678-.5,2.75,2.75,0,0,0,.776-1.726ZM14.636,0a2.657,2.657,0,0,1-.178-.779,2.822,2.822,0,0,1-2.105.916,2.611,2.611,0,0,1-1.794-.619,2,2,0,0,1-.7-1.569,2.091,2.091,0,0,1,.878-1.794,4.142,4.142,0,0,1,2.471-.639h1.23v-.581a1.42,1.42,0,0,0-.4-1.056,1.593,1.593,0,0,0-1.169-.393,1.844,1.844,0,0,0-1.135.342,1.007,1.007,0,0,0-.458.827H10.008a1.745,1.745,0,0,1,.393-1.07,2.683,2.683,0,0,1,1.066-.817,3.588,3.588,0,0,1,1.48-.3,2.924,2.924,0,0,1,2,.639,2.306,2.306,0,0,1,.752,1.76v3.4a4.162,4.162,0,0,0,.26,1.62V0Zm-2.1-.964a2.223,2.223,0,0,0,1.128-.308,1.861,1.861,0,0,0,.772-.8V-3.589h-.991q-2.324,0-2.324,1.36a1.151,1.151,0,0,0,.4.93A1.524,1.524,0,0,0,12.537-.964Zm1.169-9.522h1.531l-1.832,2.01-1.019,0ZM18.874-7.4l.034.82A2.732,2.732,0,0,1,21.1-7.533a2.115,2.115,0,0,1,2.112,1.189,2.8,2.8,0,0,1,.96-.861,2.837,2.837,0,0,1,1.4-.328q2.434,0,2.475,2.577V0H26.783V-4.881a1.7,1.7,0,0,0-.362-1.186A1.6,1.6,0,0,0,25.2-6.46a1.677,1.677,0,0,0-1.169.42,1.706,1.706,0,0,0-.54,1.131V0H22.224V-4.847A1.411,1.411,0,0,0,20.645-6.46a1.692,1.692,0,0,0-1.7,1.06V0H17.678V-7.4ZM34.521,0a2.657,2.657,0,0,1-.178-.779,2.822,2.822,0,0,1-2.105.916,2.611,2.611,0,0,1-1.794-.619,2,2,0,0,1-.7-1.569,2.091,2.091,0,0,1,.878-1.794,4.142,4.142,0,0,1,2.471-.639h1.23v-.581a1.42,1.42,0,0,0-.4-1.056,1.593,1.593,0,0,0-1.169-.393,1.844,1.844,0,0,0-1.135.342,1.007,1.007,0,0,0-.458.827H29.894a1.745,1.745,0,0,1,.393-1.07,2.683,2.683,0,0,1,1.066-.817,3.588,3.588,0,0,1,1.48-.3,2.924,2.924,0,0,1,2,.639,2.306,2.306,0,0,1,.752,1.76v3.4a4.162,4.162,0,0,0,.26,1.62V0Zm-2.1-.964a2.223,2.223,0,0,0,1.128-.308,1.861,1.861,0,0,0,.772-.8V-3.589h-.991q-2.324,0-2.324,1.36a1.151,1.151,0,0,0,.4.93A1.524,1.524,0,0,0,32.423-.964Zm8.723-5.3a3.79,3.79,0,0,0-.622-.048,1.667,1.667,0,0,0-1.688,1.06V0H37.57V-7.4H38.8l.021.854a1.969,1.969,0,0,1,1.764-.991,1.292,1.292,0,0,1,.561.1ZM46.6,0a2.657,2.657,0,0,1-.178-.779,2.822,2.822,0,0,1-2.105.916,2.611,2.611,0,0,1-1.794-.619,2,2,0,0,1-.7-1.569A2.091,2.091,0,0,1,42.7-3.845a4.142,4.142,0,0,1,2.471-.639H46.4v-.581a1.42,1.42,0,0,0-.4-1.056,1.593,1.593,0,0,0-1.169-.393,1.844,1.844,0,0,0-1.135.342,1.007,1.007,0,0,0-.458.827H41.973a1.745,1.745,0,0,1,.393-1.07,2.683,2.683,0,0,1,1.066-.817,3.588,3.588,0,0,1,1.48-.3,2.924,2.924,0,0,1,2,.639,2.306,2.306,0,0,1,.752,1.76v3.4a4.162,4.162,0,0,0,.26,1.62V0ZM44.5-.964a2.223,2.223,0,0,0,1.128-.308,1.861,1.861,0,0,0,.772-.8V-3.589h-.991q-2.324,0-2.324,1.36a1.151,1.151,0,0,0,.4.93A1.524,1.524,0,0,0,44.5-.964Z" transform="translate(1222.314 2194.189)" fill="#0c1d30"/>
    <path id="Trazado_203014" data-name="Trazado 203014" d="M1.155,0V-9.953H4.409a3.777,3.777,0,0,1,2.437.67A2.414,2.414,0,0,1,7.663-7.3a2.022,2.022,0,0,1-.4,1.234,2.57,2.57,0,0,1-1.08.831,2.308,2.308,0,0,1,1.275.858A2.462,2.462,0,0,1,7.93-2.871,2.662,2.662,0,0,1,7.062-.766,3.59,3.59,0,0,1,4.607,0ZM2.468-4.655v3.582H4.635a2.087,2.087,0,0,0,1.446-.475,1.669,1.669,0,0,0,.53-1.309q0-1.8-1.955-1.8Zm0-1.053H4.45A2.078,2.078,0,0,0,5.828-6.14a1.447,1.447,0,0,0,.516-1.171,1.423,1.423,0,0,0-.479-1.2A2.35,2.35,0,0,0,4.409-8.88H2.468ZM14.239,0a2.657,2.657,0,0,1-.178-.779,2.822,2.822,0,0,1-2.105.916,2.611,2.611,0,0,1-1.794-.619,2,2,0,0,1-.7-1.569,2.091,2.091,0,0,1,.878-1.794,4.142,4.142,0,0,1,2.471-.639h1.23v-.581a1.42,1.42,0,0,0-.4-1.056,1.593,1.593,0,0,0-1.169-.393,1.844,1.844,0,0,0-1.135.342,1.007,1.007,0,0,0-.458.827H9.611A1.745,1.745,0,0,1,10-6.416a2.683,2.683,0,0,1,1.066-.817,3.588,3.588,0,0,1,1.48-.3,2.924,2.924,0,0,1,2,.639,2.306,2.306,0,0,1,.752,1.76v3.4a4.162,4.162,0,0,0,.26,1.62V0Zm-2.1-.964a2.223,2.223,0,0,0,1.128-.308,1.861,1.861,0,0,0,.772-.8V-3.589H13.05q-2.324,0-2.324,1.36a1.151,1.151,0,0,0,.4.93A1.524,1.524,0,0,0,12.141-.964Zm4.847-2.8a4.347,4.347,0,0,1,.8-2.751,2.558,2.558,0,0,1,2.119-1.022,2.544,2.544,0,0,1,2.112.957l.062-.82h1.155V-.178a3.009,3.009,0,0,1-.851,2.263,3.141,3.141,0,0,1-2.287.827,3.8,3.8,0,0,1-1.565-.342,2.7,2.7,0,0,1-1.169-.937L18.02.875a2.473,2.473,0,0,0,1.989,1,1.938,1.938,0,0,0,1.439-.52A1.986,1.986,0,0,0,21.964-.1V-.738a2.6,2.6,0,0,1-2.071.875,2.527,2.527,0,0,1-2.1-1.046A4.571,4.571,0,0,1,16.987-3.76Zm1.271.144a3.316,3.316,0,0,0,.513,1.965,1.666,1.666,0,0,0,1.436.714,1.852,1.852,0,0,0,1.757-1.087V-5.4a1.874,1.874,0,0,0-1.743-1.06,1.681,1.681,0,0,0-1.442.718A3.612,3.612,0,0,0,18.259-3.616ZM29.709,0a2.657,2.657,0,0,1-.178-.779,2.822,2.822,0,0,1-2.105.916,2.611,2.611,0,0,1-1.794-.619,2,2,0,0,1-.7-1.569,2.091,2.091,0,0,1,.878-1.794,4.142,4.142,0,0,1,2.471-.639h1.23v-.581a1.42,1.42,0,0,0-.4-1.056,1.593,1.593,0,0,0-1.169-.393,1.844,1.844,0,0,0-1.135.342,1.007,1.007,0,0,0-.458.827H25.081a1.745,1.745,0,0,1,.393-1.07,2.683,2.683,0,0,1,1.066-.817,3.588,3.588,0,0,1,1.48-.3,2.924,2.924,0,0,1,2,.639,2.306,2.306,0,0,1,.752,1.76v3.4a4.162,4.162,0,0,0,.26,1.62V0Zm-2.1-.964a2.223,2.223,0,0,0,1.128-.308,1.861,1.861,0,0,0,.772-.8V-3.589H28.52q-2.324,0-2.324,1.36a1.151,1.151,0,0,0,.4.93A1.524,1.524,0,0,0,27.61-.964Zm6.337-.068h4.327V0H32.4V-.93l4.081-5.421h-4.02V-7.4h5.605v.9Zm5.3-2.734a4.369,4.369,0,0,1,.427-1.955,3.187,3.187,0,0,1,1.189-1.34,3.238,3.238,0,0,1,1.74-.472,3.119,3.119,0,0,1,2.444,1.046,4.024,4.024,0,0,1,.933,2.782v.089a4.407,4.407,0,0,1-.414,1.938A3.14,3.14,0,0,1,44.389-.342a3.275,3.275,0,0,1-1.767.479A3.111,3.111,0,0,1,40.185-.909a4,4,0,0,1-.933-2.769Zm1.271.15a3.164,3.164,0,0,0,.571,1.976A1.827,1.827,0,0,0,42.622-.9a1.816,1.816,0,0,0,1.531-.755,3.46,3.46,0,0,0,.567-2.116,3.159,3.159,0,0,0-.578-1.972,1.836,1.836,0,0,0-1.535-.755,1.816,1.816,0,0,0-1.511.745A3.434,3.434,0,0,0,40.523-3.616Z" transform="translate(547.87 1991.161)" fill="#0c1d30"/>
    <path id="Trazado_202995" data-name="Trazado 202995" d="M8.032-8.88h-3.2V0H3.527V-8.88H.335V-9.953h7.7ZM8.3-3.767a4.369,4.369,0,0,1,.427-1.955,3.187,3.187,0,0,1,1.189-1.34,3.238,3.238,0,0,1,1.74-.472A3.119,3.119,0,0,1,14.1-6.487a4.024,4.024,0,0,1,.933,2.782v.089a4.407,4.407,0,0,1-.414,1.938A3.14,3.14,0,0,1,13.436-.342a3.275,3.275,0,0,1-1.767.479A3.111,3.111,0,0,1,9.232-.909,4,4,0,0,1,8.3-3.678Zm1.271.15a3.164,3.164,0,0,0,.571,1.976A1.827,1.827,0,0,0,11.669-.9,1.816,1.816,0,0,0,13.2-1.651a3.46,3.46,0,0,0,.567-2.116,3.159,3.159,0,0,0-.578-1.972,1.836,1.836,0,0,0-1.535-.755,1.816,1.816,0,0,0-1.511.745A3.434,3.434,0,0,0,9.57-3.616ZM20.193-6.262a3.79,3.79,0,0,0-.622-.048,1.667,1.667,0,0,0-1.688,1.06V0H16.618V-7.4h1.23l.021.854a1.969,1.969,0,0,1,1.764-.991,1.292,1.292,0,0,1,.561.1Zm3.22-2.926V-7.4h1.381v.978H23.413v4.593a1.027,1.027,0,0,0,.185.667.777.777,0,0,0,.629.222,3.062,3.062,0,0,0,.6-.082V0a3.688,3.688,0,0,1-.971.136,1.575,1.575,0,0,1-1.278-.513,2.2,2.2,0,0,1-.431-1.456V-6.419H20.8V-7.4h1.347V-9.187ZM30.837,0a2.657,2.657,0,0,1-.178-.779,2.822,2.822,0,0,1-2.105.916,2.611,2.611,0,0,1-1.794-.619,2,2,0,0,1-.7-1.569,2.091,2.091,0,0,1,.878-1.794,4.142,4.142,0,0,1,2.471-.639h1.23v-.581a1.42,1.42,0,0,0-.4-1.056,1.593,1.593,0,0,0-1.169-.393,1.844,1.844,0,0,0-1.135.342,1.007,1.007,0,0,0-.458.827H26.209a1.745,1.745,0,0,1,.393-1.07,2.683,2.683,0,0,1,1.066-.817,3.588,3.588,0,0,1,1.48-.3,2.924,2.924,0,0,1,2,.639,2.306,2.306,0,0,1,.752,1.76v3.4a4.162,4.162,0,0,0,.26,1.62V0Zm-2.1-.964a2.223,2.223,0,0,0,1.128-.308,1.861,1.861,0,0,0,.772-.8V-3.589h-.991q-2.324,0-2.324,1.36a1.151,1.151,0,0,0,.4.93A1.524,1.524,0,0,0,28.738-.964Z" transform="translate(686.562 2075.672)" fill="#0c1d30"/>
    <path id="Trazado_203003" data-name="Trazado 203003" d="M5.325-9.953H6.645v7.048A2.919,2.919,0,0,1,5.787-.67,3.2,3.2,0,0,1,3.5.137,3.292,3.292,0,0,1,1.189-.622,2.74,2.74,0,0,1,.362-2.748H1.675a1.825,1.825,0,0,0,.468,1.333A1.814,1.814,0,0,0,3.5-.937a1.76,1.76,0,0,0,1.316-.513,1.986,1.986,0,0,0,.509-1.436ZM13.248-.731a2.686,2.686,0,0,1-2.167.868A2.3,2.3,0,0,1,9.28-.55a2.974,2.974,0,0,1-.625-2.034V-7.4H9.919v4.778q0,1.682,1.367,1.682a1.893,1.893,0,0,0,1.928-1.08V-7.4h1.265V0h-1.2ZM16.1-3.76a4.347,4.347,0,0,1,.8-2.751,2.558,2.558,0,0,1,2.119-1.022,2.544,2.544,0,0,1,2.112.957l.062-.82h1.155V-.178A3.009,3.009,0,0,1,21.5,2.085a3.141,3.141,0,0,1-2.287.827,3.8,3.8,0,0,1-1.565-.342,2.7,2.7,0,0,1-1.169-.937l.656-.759a2.473,2.473,0,0,0,1.989,1,1.938,1.938,0,0,0,1.439-.52A1.986,1.986,0,0,0,21.075-.1V-.738A2.6,2.6,0,0,1,19,.137,2.527,2.527,0,0,1,16.9-.909,4.571,4.571,0,0,1,16.1-3.76Zm1.271.144a3.316,3.316,0,0,0,.513,1.965,1.666,1.666,0,0,0,1.436.714,1.852,1.852,0,0,0,1.757-1.087V-5.4a1.874,1.874,0,0,0-1.743-1.06,1.681,1.681,0,0,0-1.442.718A3.612,3.612,0,0,0,17.37-3.616Zm6.549-.15a4.369,4.369,0,0,1,.427-1.955,3.187,3.187,0,0,1,1.189-1.34,3.238,3.238,0,0,1,1.74-.472,3.119,3.119,0,0,1,2.444,1.046,4.024,4.024,0,0,1,.933,2.782v.089a4.407,4.407,0,0,1-.414,1.938A3.14,3.14,0,0,1,29.056-.342a3.275,3.275,0,0,1-1.767.479A3.111,3.111,0,0,1,24.852-.909a4,4,0,0,1-.933-2.769Zm1.271.15a3.164,3.164,0,0,0,.571,1.976A1.827,1.827,0,0,0,27.289-.9a1.816,1.816,0,0,0,1.531-.755,3.46,3.46,0,0,0,.567-2.116,3.159,3.159,0,0,0-.578-1.972,1.836,1.836,0,0,0-1.535-.755,1.816,1.816,0,0,0-1.511.745A3.434,3.434,0,0,0,25.19-3.616ZM38.671-.9a1.822,1.822,0,0,0,1.183-.41,1.443,1.443,0,0,0,.561-1.025h1.2a2.293,2.293,0,0,1-.437,1.21A2.881,2.881,0,0,1,40.1-.205a3.107,3.107,0,0,1-1.425.342,3.047,3.047,0,0,1-2.4-1.008,4.016,4.016,0,0,1-.892-2.758v-.212a4.453,4.453,0,0,1,.4-1.921,3.02,3.02,0,0,1,1.138-1.306,3.233,3.233,0,0,1,1.753-.465,2.966,2.966,0,0,1,2.068.745,2.663,2.663,0,0,1,.878,1.935h-1.2a1.743,1.743,0,0,0-.543-1.179,1.691,1.691,0,0,0-1.207-.461A1.77,1.77,0,0,0,37.17-5.8a3.259,3.259,0,0,0-.53,2.006v.239a3.194,3.194,0,0,0,.526,1.969A1.779,1.779,0,0,0,38.671-.9Zm7.937-5.366a3.79,3.79,0,0,0-.622-.048A1.667,1.667,0,0,0,44.3-5.25V0H43.032V-7.4h1.23l.021.854a1.969,1.969,0,0,1,1.764-.991,1.292,1.292,0,0,1,.561.1Zm5.729,5.53a2.686,2.686,0,0,1-2.167.868,2.3,2.3,0,0,1-1.8-.687,2.974,2.974,0,0,1-.625-2.034V-7.4h1.265v4.778q0,1.682,1.367,1.682A1.893,1.893,0,0,0,52.3-2.017V-7.4h1.265V0h-1.2ZM55.18-3.76A4.333,4.333,0,0,1,55.986-6.5,2.551,2.551,0,0,1,58.1-7.533a2.565,2.565,0,0,1,2.058.889V-10.5h1.265V0H60.259L60.2-.793a2.575,2.575,0,0,1-2.112.93,2.526,2.526,0,0,1-2.1-1.053,4.382,4.382,0,0,1-.81-2.748Zm1.265.144a3.281,3.281,0,0,0,.52,1.969A1.68,1.68,0,0,0,58.4-.937a1.845,1.845,0,0,0,1.757-1.08v-3.4A1.859,1.859,0,0,0,58.413-6.46a1.687,1.687,0,0,0-1.449.718A3.612,3.612,0,0,0,56.444-3.616Zm6.6-.15a4.369,4.369,0,0,1,.427-1.955,3.187,3.187,0,0,1,1.189-1.34,3.238,3.238,0,0,1,1.74-.472,3.119,3.119,0,0,1,2.444,1.046,4.024,4.024,0,0,1,.933,2.782v.089a4.407,4.407,0,0,1-.414,1.938A3.14,3.14,0,0,1,68.185-.342a3.275,3.275,0,0,1-1.767.479A3.111,3.111,0,0,1,63.981-.909a4,4,0,0,1-.933-2.769Zm1.271.15a3.164,3.164,0,0,0,.571,1.976A1.827,1.827,0,0,0,66.418-.9a1.816,1.816,0,0,0,1.531-.755,3.46,3.46,0,0,0,.567-2.116,3.159,3.159,0,0,0-.578-1.972A1.836,1.836,0,0,0,66.4-6.494a1.816,1.816,0,0,0-1.511.745A3.434,3.434,0,0,0,64.319-3.616Z" transform="translate(514.276 2040.525)" fill="#0c1d30"/>
    <path id="Trazado_202996" data-name="Trazado 202996" d="M2.468-3.9V0H1.155V-9.953H4.826a3.688,3.688,0,0,1,2.56.834,2.827,2.827,0,0,1,.926,2.208,2.79,2.79,0,0,1-.906,2.232A3.853,3.853,0,0,1,4.813-3.9Zm0-1.073H4.826a2.358,2.358,0,0,0,1.613-.5A1.815,1.815,0,0,0,7-6.9a1.876,1.876,0,0,0-.561-1.424A2.209,2.209,0,0,0,4.9-8.88H2.468Zm10.9-1.292a3.79,3.79,0,0,0-.622-.048,1.667,1.667,0,0,0-1.688,1.06V0H9.789V-7.4h1.23l.021.854A1.969,1.969,0,0,1,12.8-7.533a1.292,1.292,0,0,1,.561.1Zm4.1,6.4a3.232,3.232,0,0,1-2.447-.988,3.666,3.666,0,0,1-.943-2.642v-.232a4.438,4.438,0,0,1,.42-1.965,3.28,3.28,0,0,1,1.176-1.354,2.956,2.956,0,0,1,1.637-.489,2.77,2.77,0,0,1,2.242.95,4.114,4.114,0,0,1,.8,2.721v.526H15.34a2.629,2.629,0,0,0,.639,1.767A2.009,2.009,0,0,0,17.534-.9a2.2,2.2,0,0,0,1.135-.273,2.851,2.851,0,0,0,.813-.725l.772.6A3.106,3.106,0,0,1,17.466.137Zm-.157-6.631a1.687,1.687,0,0,0-1.285.557,2.708,2.708,0,0,0-.643,1.562h3.705v-.1a2.409,2.409,0,0,0-.52-1.494A1.588,1.588,0,0,0,17.309-6.494ZM23.188,0H21.923V-10.5h1.265Zm3.4,0H25.32V-7.4h1.265ZM25.218-9.358a.755.755,0,0,1,.188-.52.706.706,0,0,1,.557-.212.717.717,0,0,1,.561.212.747.747,0,0,1,.191.52.722.722,0,0,1-.191.513.73.73,0,0,1-.561.205.718.718,0,0,1-.557-.205A.73.73,0,0,1,25.218-9.358ZM29.8-7.4l.034.82a2.732,2.732,0,0,1,2.194-.957,2.115,2.115,0,0,1,2.112,1.189,2.8,2.8,0,0,1,.96-.861,2.837,2.837,0,0,1,1.4-.328q2.434,0,2.475,2.577V0H37.707V-4.881a1.7,1.7,0,0,0-.362-1.186,1.6,1.6,0,0,0-1.217-.393,1.677,1.677,0,0,0-1.169.42,1.706,1.706,0,0,0-.54,1.131V0H33.147V-4.847A1.411,1.411,0,0,0,31.568-6.46a1.692,1.692,0,0,0-1.7,1.06V0H28.6V-7.4Zm17.329,3.78A4.429,4.429,0,0,1,46.354-.9,2.476,2.476,0,0,1,44.263.137a2.713,2.713,0,0,1-2.119-.854V2.844H40.879V-7.4h1.155l.062.82a2.605,2.605,0,0,1,2.146-.957,2.522,2.522,0,0,1,2.109,1,4.477,4.477,0,0,1,.776,2.8ZM45.862-3.76a3.268,3.268,0,0,0-.533-1.976,1.718,1.718,0,0,0-1.463-.725,1.859,1.859,0,0,0-1.723,1.019v3.534A1.863,1.863,0,0,0,43.88-.9a1.71,1.71,0,0,0,1.446-.721A3.567,3.567,0,0,0,45.862-3.76ZM50.107,0H48.843V-7.4h1.265ZM48.74-9.358a.755.755,0,0,1,.188-.52.706.706,0,0,1,.557-.212.717.717,0,0,1,.561.212.747.747,0,0,1,.191.52.722.722,0,0,1-.191.513.73.73,0,0,1-.561.205.718.718,0,0,1-.557-.205A.73.73,0,0,1,48.74-9.358ZM56.7,0a2.657,2.657,0,0,1-.178-.779,2.822,2.822,0,0,1-2.105.916A2.611,2.611,0,0,1,52.62-.482a2,2,0,0,1-.7-1.569A2.091,2.091,0,0,1,52.8-3.845a4.142,4.142,0,0,1,2.471-.639H56.5v-.581a1.42,1.42,0,0,0-.4-1.056,1.593,1.593,0,0,0-1.169-.393,1.844,1.844,0,0,0-1.135.342,1.007,1.007,0,0,0-.458.827H52.069a1.745,1.745,0,0,1,.393-1.07,2.683,2.683,0,0,1,1.066-.817,3.588,3.588,0,0,1,1.48-.3,2.924,2.924,0,0,1,2,.639,2.306,2.306,0,0,1,.752,1.76v3.4a4.162,4.162,0,0,0,.26,1.62V0ZM54.6-.964a2.223,2.223,0,0,0,1.128-.308,1.861,1.861,0,0,0,.772-.8V-3.589h-.991q-2.324,0-2.324,1.36a1.151,1.151,0,0,0,.4.93A1.524,1.524,0,0,0,54.6-.964Zm4.84-2.8A4.333,4.333,0,0,1,60.245-6.5a2.551,2.551,0,0,1,2.112-1.036,2.565,2.565,0,0,1,2.058.889V-10.5H65.68V0H64.518l-.062-.793a2.575,2.575,0,0,1-2.112.93,2.526,2.526,0,0,1-2.1-1.053,4.382,4.382,0,0,1-.81-2.748Zm1.265.144a3.281,3.281,0,0,0,.52,1.969,1.68,1.68,0,0,0,1.436.711,1.845,1.845,0,0,0,1.757-1.08v-3.4A1.859,1.859,0,0,0,62.672-6.46a1.687,1.687,0,0,0-1.449.718A3.612,3.612,0,0,0,60.7-3.616Zm6.6-.15a4.369,4.369,0,0,1,.427-1.955,3.187,3.187,0,0,1,1.189-1.34,3.238,3.238,0,0,1,1.74-.472,3.119,3.119,0,0,1,2.444,1.046,4.024,4.024,0,0,1,.933,2.782v.089a4.407,4.407,0,0,1-.414,1.938A3.14,3.14,0,0,1,72.444-.342a3.275,3.275,0,0,1-1.767.479A3.111,3.111,0,0,1,68.24-.909a4,4,0,0,1-.933-2.769Zm1.271.15a3.164,3.164,0,0,0,.571,1.976A1.827,1.827,0,0,0,70.677-.9a1.816,1.816,0,0,0,1.531-.755,3.46,3.46,0,0,0,.567-2.116A3.159,3.159,0,0,0,72.2-5.739a1.836,1.836,0,0,0-1.535-.755,1.816,1.816,0,0,0-1.511.745A3.434,3.434,0,0,0,68.578-3.616ZM79.2-6.262a3.79,3.79,0,0,0-.622-.048,1.667,1.667,0,0,0-1.688,1.06V0H75.626V-7.4h1.23l.021.854a1.969,1.969,0,0,1,1.764-.991,1.292,1.292,0,0,1,.561.1Z" transform="translate(542.187 2102.66)" fill="#0c1d30"/>
    <path id="Trazado_202997" data-name="Trazado 202997" d="M8.477-3.158A3.662,3.662,0,0,1,7.311-.721,3.82,3.82,0,0,1,4.7.137,3.507,3.507,0,0,1,1.876-1.128,5.088,5.088,0,0,1,.813-4.512v-.957a5.671,5.671,0,0,1,.5-2.44,3.7,3.7,0,0,1,1.4-1.617,3.911,3.911,0,0,1,2.105-.564A3.6,3.6,0,0,1,7.362-9.2,3.706,3.706,0,0,1,8.477-6.754H7.157a2.86,2.86,0,0,0-.742-1.728,2.244,2.244,0,0,0-1.6-.535,2.348,2.348,0,0,0-1.972.93,4.271,4.271,0,0,0-.714,2.648v.965A4.391,4.391,0,0,0,2.81-1.894,2.187,2.187,0,0,0,4.7-.937a2.526,2.526,0,0,0,1.678-.5,2.75,2.75,0,0,0,.776-1.726ZM14.636,0a2.657,2.657,0,0,1-.178-.779,2.822,2.822,0,0,1-2.105.916,2.611,2.611,0,0,1-1.794-.619,2,2,0,0,1-.7-1.569,2.091,2.091,0,0,1,.878-1.794,4.142,4.142,0,0,1,2.471-.639h1.23v-.581a1.42,1.42,0,0,0-.4-1.056,1.593,1.593,0,0,0-1.169-.393,1.844,1.844,0,0,0-1.135.342,1.007,1.007,0,0,0-.458.827H10.008a1.745,1.745,0,0,1,.393-1.07,2.683,2.683,0,0,1,1.066-.817,3.588,3.588,0,0,1,1.48-.3,2.924,2.924,0,0,1,2,.639,2.306,2.306,0,0,1,.752,1.76v3.4a4.162,4.162,0,0,0,.26,1.62V0Zm-2.1-.964a2.223,2.223,0,0,0,1.128-.308,1.861,1.861,0,0,0,.772-.8V-3.589h-.991q-2.324,0-2.324,1.36a1.151,1.151,0,0,0,.4.93A1.524,1.524,0,0,0,12.537-.964ZM20.651-.9a1.822,1.822,0,0,0,1.183-.41,1.443,1.443,0,0,0,.561-1.025h1.2a2.293,2.293,0,0,1-.437,1.21,2.881,2.881,0,0,1-1.077.916,3.107,3.107,0,0,1-1.425.342,3.047,3.047,0,0,1-2.4-1.008,4.016,4.016,0,0,1-.892-2.758v-.212a4.453,4.453,0,0,1,.4-1.921,3.02,3.02,0,0,1,1.138-1.306,3.233,3.233,0,0,1,1.753-.465,2.966,2.966,0,0,1,2.068.745,2.663,2.663,0,0,1,.878,1.935h-1.2a1.743,1.743,0,0,0-.543-1.179,1.691,1.691,0,0,0-1.207-.461,1.77,1.77,0,0,0-1.494.694,3.259,3.259,0,0,0-.53,2.006v.239a3.194,3.194,0,0,0,.526,1.969A1.779,1.779,0,0,0,20.651-.9ZM26.277-6.5a2.689,2.689,0,0,1,2.188-1.032q2.345,0,2.365,2.646V0H29.565V-4.895A1.7,1.7,0,0,0,29.2-6.077a1.466,1.466,0,0,0-1.118-.383A1.825,1.825,0,0,0,27-6.132a2.228,2.228,0,0,0-.725.861V0H25.013V-10.5h1.265ZM37.29,0a2.657,2.657,0,0,1-.178-.779,2.822,2.822,0,0,1-2.105.916,2.611,2.611,0,0,1-1.794-.619,2,2,0,0,1-.7-1.569,2.091,2.091,0,0,1,.878-1.794,4.142,4.142,0,0,1,2.471-.639h1.23v-.581a1.42,1.42,0,0,0-.4-1.056,1.593,1.593,0,0,0-1.169-.393,1.844,1.844,0,0,0-1.135.342,1.007,1.007,0,0,0-.458.827H32.662a1.745,1.745,0,0,1,.393-1.07,2.683,2.683,0,0,1,1.066-.817,3.588,3.588,0,0,1,1.48-.3,2.924,2.924,0,0,1,2,.639,2.306,2.306,0,0,1,.752,1.76v3.4a4.162,4.162,0,0,0,.26,1.62V0Zm-2.1-.964a2.223,2.223,0,0,0,1.128-.308,1.861,1.861,0,0,0,.772-.8V-3.589H36.1q-2.324,0-2.324,1.36a1.151,1.151,0,0,0,.4.93A1.524,1.524,0,0,0,35.191-.964Zm6.337-.068h4.327V0H39.983V-.93l4.081-5.421h-4.02V-7.4H45.65v.9ZM51.844,0a2.657,2.657,0,0,1-.178-.779,2.822,2.822,0,0,1-2.105.916,2.611,2.611,0,0,1-1.794-.619,2,2,0,0,1-.7-1.569,2.091,2.091,0,0,1,.878-1.794,4.142,4.142,0,0,1,2.471-.639h1.23v-.581a1.42,1.42,0,0,0-.4-1.056,1.593,1.593,0,0,0-1.169-.393,1.844,1.844,0,0,0-1.135.342,1.007,1.007,0,0,0-.458.827H47.216a1.745,1.745,0,0,1,.393-1.07,2.683,2.683,0,0,1,1.066-.817,3.588,3.588,0,0,1,1.48-.3,2.924,2.924,0,0,1,2,.639,2.306,2.306,0,0,1,.752,1.76v3.4a4.162,4.162,0,0,0,.26,1.62V0Zm-2.1-.964a2.223,2.223,0,0,0,1.128-.308,1.861,1.861,0,0,0,.772-.8V-3.589h-.991q-2.324,0-2.324,1.36a1.151,1.151,0,0,0,.4.93A1.524,1.524,0,0,0,49.745-.964Z" transform="translate(422.061 2184.193)" fill="#0c1d30"/>
    <path id="Trazado_201976" data-name="Trazado 201976" d="M-3030.8-3666.264s22.189,17.7,28.308,39.561l1.344-.335s-3.48-18.265-28.9-41.2Z" transform="translate(3618.283 5851.657)" fill="#ffd63c"/>
    <path id="Trazado_202985" data-name="Trazado 202985" d="M12,0h90.546a12,12,0,0,1,12,12v4.189a12,12,0,0,1-12,12H12a12,12,0,0,1-12-12V12A12,12,0,0,1,12,0Z" transform="translate(516.379 2148.433)" fill="#e3e3e3"/>
    <path id="Trazado_202986" data-name="Trazado 202986" d="M8.477-3.158A3.662,3.662,0,0,1,7.311-.721,3.82,3.82,0,0,1,4.7.137,3.507,3.507,0,0,1,1.876-1.128,5.088,5.088,0,0,1,.813-4.512v-.957a5.671,5.671,0,0,1,.5-2.44,3.7,3.7,0,0,1,1.4-1.617,3.911,3.911,0,0,1,2.105-.564A3.6,3.6,0,0,1,7.362-9.2,3.706,3.706,0,0,1,8.477-6.754H7.157a2.86,2.86,0,0,0-.742-1.728,2.244,2.244,0,0,0-1.6-.535,2.348,2.348,0,0,0-1.972.93,4.271,4.271,0,0,0-.714,2.648v.965A4.391,4.391,0,0,0,2.81-1.894,2.187,2.187,0,0,0,4.7-.937a2.526,2.526,0,0,0,1.678-.5,2.75,2.75,0,0,0,.776-1.726ZM11.443,0H10.179V-10.5h1.265Zm6.59,0a2.657,2.657,0,0,1-.178-.779A2.822,2.822,0,0,1,15.75.137a2.611,2.611,0,0,1-1.794-.619,2,2,0,0,1-.7-1.569,2.091,2.091,0,0,1,.878-1.794A4.142,4.142,0,0,1,16.6-4.484h1.23v-.581a1.42,1.42,0,0,0-.4-1.056,1.593,1.593,0,0,0-1.169-.393,1.844,1.844,0,0,0-1.135.342,1.007,1.007,0,0,0-.458.827H13.405a1.745,1.745,0,0,1,.393-1.07,2.683,2.683,0,0,1,1.066-.817,3.588,3.588,0,0,1,1.48-.3,2.924,2.924,0,0,1,2,.639,2.306,2.306,0,0,1,.752,1.76v3.4a4.162,4.162,0,0,0,.26,1.62V0Zm-2.1-.964a2.223,2.223,0,0,0,1.128-.308,1.861,1.861,0,0,0,.772-.8V-3.589h-.991q-2.324,0-2.324,1.36a1.151,1.151,0,0,0,.4.93A1.524,1.524,0,0,0,15.935-.964Zm8.723-5.3a3.79,3.79,0,0,0-.622-.048,1.667,1.667,0,0,0-1.688,1.06V0H21.082V-7.4h1.23l.021.854A1.969,1.969,0,0,1,24.1-7.533a1.292,1.292,0,0,1,.561.1ZM27.193,0H25.929V-7.4h1.265ZM25.826-9.358a.755.755,0,0,1,.188-.52.706.706,0,0,1,.557-.212.717.717,0,0,1,.561.212.747.747,0,0,1,.191.52.722.722,0,0,1-.191.513.73.73,0,0,1-.561.205.718.718,0,0,1-.557-.205A.73.73,0,0,1,25.826-9.358ZM29.641,0V-6.419H28.472V-7.4h1.169v-.629a2.57,2.57,0,0,1,.708-1.928,2.744,2.744,0,0,1,2-.69,6.021,6.021,0,0,1,1.935.417L34.07-9.16A4.382,4.382,0,0,0,32.443-9.5a1.592,1.592,0,0,0-1.172.366,1.508,1.508,0,0,0-.359,1.1V-7.4h1.511v.978H30.912V0Zm5.271,0H33.64V-7.4h1.271Zm5.024-.9a1.822,1.822,0,0,0,1.183-.41,1.443,1.443,0,0,0,.561-1.025h1.2a2.293,2.293,0,0,1-.437,1.21,2.881,2.881,0,0,1-1.077.916,3.107,3.107,0,0,1-1.425.342,3.047,3.047,0,0,1-2.4-1.008,4.016,4.016,0,0,1-.892-2.758v-.212a4.453,4.453,0,0,1,.4-1.921,3.02,3.02,0,0,1,1.138-1.306,3.233,3.233,0,0,1,1.753-.465A2.966,2.966,0,0,1,42-6.788a2.663,2.663,0,0,1,.878,1.935h-1.2a1.743,1.743,0,0,0-.543-1.179,1.691,1.691,0,0,0-1.207-.461,1.77,1.77,0,0,0-1.494.694,3.259,3.259,0,0,0-.53,2.006v.239a3.194,3.194,0,0,0,.526,1.969A1.779,1.779,0,0,0,39.936-.9Zm8.928.9a2.657,2.657,0,0,1-.178-.779A2.822,2.822,0,0,1,46.58.137a2.611,2.611,0,0,1-1.794-.619,2,2,0,0,1-.7-1.569,2.091,2.091,0,0,1,.878-1.794,4.142,4.142,0,0,1,2.471-.639h1.23v-.581a1.42,1.42,0,0,0-.4-1.056A1.593,1.593,0,0,0,47.1-6.515a1.844,1.844,0,0,0-1.135.342,1.007,1.007,0,0,0-.458.827H44.235a1.745,1.745,0,0,1,.393-1.07,2.683,2.683,0,0,1,1.066-.817,3.588,3.588,0,0,1,1.48-.3,2.924,2.924,0,0,1,2,.639,2.306,2.306,0,0,1,.752,1.76v3.4a4.162,4.162,0,0,0,.26,1.62V0Zm-2.1-.964a2.223,2.223,0,0,0,1.128-.308,1.861,1.861,0,0,0,.772-.8V-3.589h-.991q-2.324,0-2.324,1.36a1.151,1.151,0,0,0,.4.93A1.524,1.524,0,0,0,46.765-.964ZM54.879-.9a1.822,1.822,0,0,0,1.183-.41,1.443,1.443,0,0,0,.561-1.025h1.2a2.293,2.293,0,0,1-.437,1.21A2.881,2.881,0,0,1,56.3-.205a3.107,3.107,0,0,1-1.425.342,3.047,3.047,0,0,1-2.4-1.008,4.016,4.016,0,0,1-.892-2.758v-.212a4.453,4.453,0,0,1,.4-1.921,3.02,3.02,0,0,1,1.138-1.306,3.233,3.233,0,0,1,1.753-.465,2.966,2.966,0,0,1,2.068.745,2.663,2.663,0,0,1,.878,1.935h-1.2a1.743,1.743,0,0,0-.543-1.179,1.691,1.691,0,0,0-1.207-.461,1.77,1.77,0,0,0-1.494.694,3.259,3.259,0,0,0-.53,2.006v.239a3.194,3.194,0,0,0,.526,1.969A1.779,1.779,0,0,0,54.879-.9Zm5.735.9H59.35V-7.4h1.265ZM59.247-9.358a.755.755,0,0,1,.188-.52.706.706,0,0,1,.557-.212.717.717,0,0,1,.561.212.747.747,0,0,1,.191.52.722.722,0,0,1-.191.513.73.73,0,0,1-.561.205.718.718,0,0,1-.557-.205A.73.73,0,0,1,59.247-9.358ZM62.3-3.767a4.369,4.369,0,0,1,.427-1.955,3.187,3.187,0,0,1,1.189-1.34,3.238,3.238,0,0,1,1.74-.472A3.119,3.119,0,0,1,68.1-6.487a4.024,4.024,0,0,1,.933,2.782v.089a4.407,4.407,0,0,1-.414,1.938A3.14,3.14,0,0,1,67.44-.342a3.275,3.275,0,0,1-1.767.479A3.111,3.111,0,0,1,63.236-.909,4,4,0,0,1,62.3-3.678Zm1.271.15a3.164,3.164,0,0,0,.571,1.976A1.827,1.827,0,0,0,65.673-.9,1.816,1.816,0,0,0,67.2-1.651a3.46,3.46,0,0,0,.567-2.116,3.159,3.159,0,0,0-.578-1.972,1.836,1.836,0,0,0-1.535-.755,1.816,1.816,0,0,0-1.511.745A3.434,3.434,0,0,0,63.574-3.616Zm2.659-6.87h1.531l-1.832,2.01-1.019,0ZM71.818-7.4l.041.93a2.7,2.7,0,0,1,2.215-1.066q2.345,0,2.365,2.646V0H75.175V-4.895a1.7,1.7,0,0,0-.366-1.183,1.466,1.466,0,0,0-1.118-.383,1.825,1.825,0,0,0-1.08.328,2.228,2.228,0,0,0-.725.861V0H70.622V-7.4Z" transform="translate(530.802 2165.589)" fill="#0c1d30"/>
    <path id="Trazado_203015" data-name="Trazado 203015" d="M12,0H65.634a12,12,0,0,1,12,12v4.189a12,12,0,0,1-12,12H12a12,12,0,0,1-12-12V12A12,12,0,0,1,12,0Z" transform="translate(518.422 1918.364)" fill="#f0f8fe"/>
    <path id="Trazado_203019" data-name="Trazado 203019" d="M2.851-9.953,6.1-1.832,9.358-9.953h1.7V0H9.748V-3.876L9.871-8.06,6.6,0h-1L2.338-8.039l.13,4.163V0H1.155V-9.953Zm9.994,6.187a4.369,4.369,0,0,1,.427-1.955,3.187,3.187,0,0,1,1.189-1.34,3.238,3.238,0,0,1,1.74-.472,3.119,3.119,0,0,1,2.444,1.046,4.024,4.024,0,0,1,.933,2.782v.089a4.407,4.407,0,0,1-.414,1.938A3.14,3.14,0,0,1,17.982-.342a3.275,3.275,0,0,1-1.767.479A3.111,3.111,0,0,1,13.778-.909a4,4,0,0,1-.933-2.769Zm1.271.15a3.164,3.164,0,0,0,.571,1.976A1.827,1.827,0,0,0,16.215-.9a1.816,1.816,0,0,0,1.531-.755,3.46,3.46,0,0,0,.567-2.116,3.159,3.159,0,0,0-.578-1.972A1.836,1.836,0,0,0,16.2-6.494a1.816,1.816,0,0,0-1.511.745A3.434,3.434,0,0,0,14.116-3.616ZM22.538,0H21.273V-10.5h1.265Zm3.4,0H24.671V-7.4h1.265ZM24.568-9.358a.755.755,0,0,1,.188-.52.706.706,0,0,1,.557-.212.717.717,0,0,1,.561.212.747.747,0,0,1,.191.52.722.722,0,0,1-.191.513.73.73,0,0,1-.561.205.718.718,0,0,1-.557-.205A.73.73,0,0,1,24.568-9.358ZM29.155-7.4l.041.93a2.7,2.7,0,0,1,2.215-1.066q2.345,0,2.365,2.646V0H32.512V-4.895a1.7,1.7,0,0,0-.366-1.183,1.466,1.466,0,0,0-1.118-.383,1.825,1.825,0,0,0-1.08.328,2.228,2.228,0,0,0-.725.861V0H27.959V-7.4Zm6.193,3.63a4.369,4.369,0,0,1,.427-1.955,3.187,3.187,0,0,1,1.189-1.34,3.238,3.238,0,0,1,1.74-.472,3.119,3.119,0,0,1,2.444,1.046,4.024,4.024,0,0,1,.933,2.782v.089a4.407,4.407,0,0,1-.414,1.938A3.14,3.14,0,0,1,40.486-.342a3.275,3.275,0,0,1-1.767.479A3.111,3.111,0,0,1,36.282-.909a4,4,0,0,1-.933-2.769Zm1.271.15a3.164,3.164,0,0,0,.571,1.976A1.827,1.827,0,0,0,38.719-.9a1.816,1.816,0,0,0,1.531-.755,3.46,3.46,0,0,0,.567-2.116,3.159,3.159,0,0,0-.578-1.972,1.836,1.836,0,0,0-1.535-.755,1.816,1.816,0,0,0-1.511.745A3.434,3.434,0,0,0,36.62-3.616Z" transform="translate(535.409 1935.521)" fill="#0c1d30"/>
    <path id="Trazado_201977" data-name="Trazado 201977" d="M-3134.346-3929.011l37.029,4.713v-9.426Z" transform="translate(3622.15 5861.571)" fill="#f0f8fe"/>
    <path id="Trazado_202998" data-name="Trazado 202998" d="M0,46.7V0" transform="translate(870.495 2030.414)" fill="none" stroke="#aea9a9" stroke-width="1.5"/>
    <path id="Trazado_201978" data-name="Trazado 201978" d="M-2999.989-3873.653s205.585-74.179,498.962-4.534" transform="translate(3617.133 5860.61)" fill="none" stroke="#dc1f27" stroke-miterlimit="10" stroke-width="1.5"/>
    <path id="Trazado_203016" data-name="Trazado 203016" d="M12,0H76.429a12,12,0,0,1,12,12v4.189a12,12,0,0,1-12,12H12a12,12,0,0,1-12-12V12A12,12,0,0,1,12,0Z" transform="translate(1079.726 1981.246)" fill="#e3e3e3"/>
    <path id="Trazado_203017" data-name="Trazado 203017" d="M1.155,0V-9.953H4.409a3.777,3.777,0,0,1,2.437.67A2.414,2.414,0,0,1,7.663-7.3a2.022,2.022,0,0,1-.4,1.234,2.57,2.57,0,0,1-1.08.831,2.308,2.308,0,0,1,1.275.858A2.462,2.462,0,0,1,7.93-2.871,2.662,2.662,0,0,1,7.062-.766,3.59,3.59,0,0,1,4.607,0ZM2.468-4.655v3.582H4.635a2.087,2.087,0,0,0,1.446-.475,1.669,1.669,0,0,0,.53-1.309q0-1.8-1.955-1.8Zm0-1.053H4.45A2.078,2.078,0,0,0,5.828-6.14a1.447,1.447,0,0,0,.516-1.171,1.423,1.423,0,0,0-.479-1.2A2.35,2.35,0,0,0,4.409-8.88H2.468ZM14.239,0a2.657,2.657,0,0,1-.178-.779,2.822,2.822,0,0,1-2.105.916,2.611,2.611,0,0,1-1.794-.619,2,2,0,0,1-.7-1.569,2.091,2.091,0,0,1,.878-1.794,4.142,4.142,0,0,1,2.471-.639h1.23v-.581a1.42,1.42,0,0,0-.4-1.056,1.593,1.593,0,0,0-1.169-.393,1.844,1.844,0,0,0-1.135.342,1.007,1.007,0,0,0-.458.827H9.611A1.745,1.745,0,0,1,10-6.416a2.683,2.683,0,0,1,1.066-.817,3.588,3.588,0,0,1,1.48-.3,2.924,2.924,0,0,1,2,.639,2.306,2.306,0,0,1,.752,1.76v3.4a4.162,4.162,0,0,0,.26,1.62V0Zm-2.1-.964a2.223,2.223,0,0,0,1.128-.308,1.861,1.861,0,0,0,.772-.8V-3.589H13.05q-2.324,0-2.324,1.36a1.151,1.151,0,0,0,.4.93A1.524,1.524,0,0,0,12.141-.964Zm4.847-2.8a4.347,4.347,0,0,1,.8-2.751,2.558,2.558,0,0,1,2.119-1.022,2.544,2.544,0,0,1,2.112.957l.062-.82h1.155V-.178a3.009,3.009,0,0,1-.851,2.263,3.141,3.141,0,0,1-2.287.827,3.8,3.8,0,0,1-1.565-.342,2.7,2.7,0,0,1-1.169-.937L18.02.875a2.473,2.473,0,0,0,1.989,1,1.938,1.938,0,0,0,1.439-.52A1.986,1.986,0,0,0,21.964-.1V-.738a2.6,2.6,0,0,1-2.071.875,2.527,2.527,0,0,1-2.1-1.046A4.571,4.571,0,0,1,16.987-3.76Zm1.271.144a3.316,3.316,0,0,0,.513,1.965,1.666,1.666,0,0,0,1.436.714,1.852,1.852,0,0,0,1.757-1.087V-5.4a1.874,1.874,0,0,0-1.743-1.06,1.681,1.681,0,0,0-1.442.718A3.612,3.612,0,0,0,18.259-3.616ZM29.709,0a2.657,2.657,0,0,1-.178-.779,2.822,2.822,0,0,1-2.105.916,2.611,2.611,0,0,1-1.794-.619,2,2,0,0,1-.7-1.569,2.091,2.091,0,0,1,.878-1.794,4.142,4.142,0,0,1,2.471-.639h1.23v-.581a1.42,1.42,0,0,0-.4-1.056,1.593,1.593,0,0,0-1.169-.393,1.844,1.844,0,0,0-1.135.342,1.007,1.007,0,0,0-.458.827H25.081a1.745,1.745,0,0,1,.393-1.07,2.683,2.683,0,0,1,1.066-.817,3.588,3.588,0,0,1,1.48-.3,2.924,2.924,0,0,1,2,.639,2.306,2.306,0,0,1,.752,1.76v3.4a4.162,4.162,0,0,0,.26,1.62V0Zm-2.1-.964a2.223,2.223,0,0,0,1.128-.308,1.861,1.861,0,0,0,.772-.8V-3.589H28.52q-2.324,0-2.324,1.36a1.151,1.151,0,0,0,.4.93A1.524,1.524,0,0,0,27.61-.964ZM35.725-.9a1.822,1.822,0,0,0,1.183-.41,1.443,1.443,0,0,0,.561-1.025h1.2a2.293,2.293,0,0,1-.437,1.21,2.881,2.881,0,0,1-1.077.916,3.107,3.107,0,0,1-1.425.342,3.047,3.047,0,0,1-2.4-1.008A4.016,4.016,0,0,1,32.43-3.63v-.212a4.453,4.453,0,0,1,.4-1.921,3.02,3.02,0,0,1,1.138-1.306,3.233,3.233,0,0,1,1.753-.465,2.966,2.966,0,0,1,2.068.745,2.663,2.663,0,0,1,.878,1.935h-1.2a1.743,1.743,0,0,0-.543-1.179,1.691,1.691,0,0,0-1.207-.461,1.77,1.77,0,0,0-1.494.694,3.259,3.259,0,0,0-.53,2.006v.239a3.194,3.194,0,0,0,.526,1.969A1.779,1.779,0,0,0,35.725-.9ZM43.155.137a3.232,3.232,0,0,1-2.447-.988,3.666,3.666,0,0,1-.943-2.642v-.232a4.438,4.438,0,0,1,.42-1.965,3.28,3.28,0,0,1,1.176-1.354A2.956,2.956,0,0,1,43-7.533a2.77,2.77,0,0,1,2.242.95,4.114,4.114,0,0,1,.8,2.721v.526H41.029a2.629,2.629,0,0,0,.639,1.767A2.009,2.009,0,0,0,43.224-.9a2.2,2.2,0,0,0,1.135-.273,2.851,2.851,0,0,0,.813-.725l.772.6A3.106,3.106,0,0,1,43.155.137ZM43-6.494a1.687,1.687,0,0,0-1.285.557,2.708,2.708,0,0,0-.643,1.562h3.705v-.1a2.409,2.409,0,0,0-.52-1.494A1.588,1.588,0,0,0,43-6.494Zm8.08.232a3.79,3.79,0,0,0-.622-.048,1.667,1.667,0,0,0-1.688,1.06V0H47.5V-7.4h1.23l.021.854a1.969,1.969,0,0,1,1.764-.991,1.292,1.292,0,0,1,.561.1ZM56.533,0a2.657,2.657,0,0,1-.178-.779A2.822,2.822,0,0,1,54.25.137a2.611,2.611,0,0,1-1.794-.619,2,2,0,0,1-.7-1.569,2.091,2.091,0,0,1,.878-1.794A4.142,4.142,0,0,1,55.1-4.484h1.23v-.581a1.42,1.42,0,0,0-.4-1.056,1.593,1.593,0,0,0-1.169-.393,1.844,1.844,0,0,0-1.135.342,1.007,1.007,0,0,0-.458.827H51.905a1.745,1.745,0,0,1,.393-1.07,2.683,2.683,0,0,1,1.066-.817,3.588,3.588,0,0,1,1.48-.3,2.924,2.924,0,0,1,2,.639,2.306,2.306,0,0,1,.752,1.76v3.4a4.162,4.162,0,0,0,.26,1.62V0Zm-2.1-.964a2.223,2.223,0,0,0,1.128-.308,1.861,1.861,0,0,0,.772-.8V-3.589h-.991q-2.324,0-2.324,1.36a1.151,1.151,0,0,0,.4.93A1.524,1.524,0,0,0,54.435-.964Z" transform="translate(1091.691 1998.834)" fill="#0c1d30"/>
    <path id="Trazado_201979" data-name="Trazado 201979" d="M-3175.107-3557.38l-12.827,70.583,17.477,1.005Z" transform="translate(3624.15 5847.518)" fill="#f0f8fe"/>
    <path id="Trazado_202999" data-name="Trazado 202999" d="M12,0H65.634a12,12,0,0,1,12,12v4.189a12,12,0,0,1-12,12H12a12,12,0,0,1-12-12V12A12,12,0,0,1,12,0Z" transform="translate(407.777 2350.372)" fill="#f0f8fe"/>
    <path id="Trazado_203000" data-name="Trazado 203000" d="M2.851-9.953,6.1-1.832,9.358-9.953h1.7V0H9.748V-3.876L9.871-8.06,6.6,0h-1L2.338-8.039l.13,4.163V0H1.155V-9.953ZM16.249.137A3.232,3.232,0,0,1,13.8-.851a3.666,3.666,0,0,1-.943-2.642v-.232a4.438,4.438,0,0,1,.42-1.965,3.28,3.28,0,0,1,1.176-1.354,2.956,2.956,0,0,1,1.637-.489,2.77,2.77,0,0,1,2.242.95,4.114,4.114,0,0,1,.8,2.721v.526H14.123a2.629,2.629,0,0,0,.639,1.767A2.009,2.009,0,0,0,16.317-.9a2.2,2.2,0,0,0,1.135-.273,2.851,2.851,0,0,0,.813-.725l.772.6A3.106,3.106,0,0,1,16.249.137Zm-.157-6.631a1.687,1.687,0,0,0-1.285.557,2.708,2.708,0,0,0-.643,1.562h3.705v-.1a2.409,2.409,0,0,0-.52-1.494A1.588,1.588,0,0,0,16.092-6.494ZM21.971,0H20.706V-10.5h1.265Zm1.688-3.767a4.369,4.369,0,0,1,.427-1.955,3.187,3.187,0,0,1,1.189-1.34,3.238,3.238,0,0,1,1.74-.472,3.119,3.119,0,0,1,2.444,1.046,4.024,4.024,0,0,1,.933,2.782v.089a4.407,4.407,0,0,1-.414,1.938A3.14,3.14,0,0,1,28.8-.342a3.275,3.275,0,0,1-1.767.479A3.111,3.111,0,0,1,24.592-.909a4,4,0,0,1-.933-2.769Zm1.271.15A3.164,3.164,0,0,0,25.5-1.641,1.827,1.827,0,0,0,27.029-.9a1.816,1.816,0,0,0,1.531-.755,3.46,3.46,0,0,0,.567-2.116,3.159,3.159,0,0,0-.578-1.972,1.836,1.836,0,0,0-1.535-.755,1.816,1.816,0,0,0-1.511.745A3.434,3.434,0,0,0,24.931-3.616Zm8.764-5.571V-7.4h1.381v.978H33.694v4.593a1.027,1.027,0,0,0,.185.667.777.777,0,0,0,.629.222,3.062,3.062,0,0,0,.6-.082V0a3.688,3.688,0,0,1-.971.136A1.575,1.575,0,0,1,32.86-.376a2.2,2.2,0,0,1-.431-1.456V-6.419H31.083V-7.4H32.43V-9.187ZM39.621.137a3.232,3.232,0,0,1-2.447-.988,3.666,3.666,0,0,1-.943-2.642v-.232a4.438,4.438,0,0,1,.42-1.965,3.28,3.28,0,0,1,1.176-1.354,2.956,2.956,0,0,1,1.637-.489,2.77,2.77,0,0,1,2.242.95,4.114,4.114,0,0,1,.8,2.721v.526H37.5a2.629,2.629,0,0,0,.639,1.767A2.009,2.009,0,0,0,39.689-.9a2.2,2.2,0,0,0,1.135-.273,2.851,2.851,0,0,0,.813-.725l.772.6A3.106,3.106,0,0,1,39.621.137Zm-.157-6.631a1.687,1.687,0,0,0-1.285.557,2.708,2.708,0,0,0-.643,1.562h3.705v-.1a2.409,2.409,0,0,0-.52-1.494A1.588,1.588,0,0,0,39.464-6.494Z" transform="translate(422.934 2367.528)" fill="#0c1d30"/>
    <path id="Trazado_201980" data-name="Trazado 201980" d="M-3201.873-3934.484l6.042-10.464h-12.083Z" transform="translate(3624.896 5861.99)" fill="#dc1f27"/>
    <path id="Trazado_201981" data-name="Trazado 201981" d="M-3141.176-3809.669l2.34-11.854-11.436,3.9Z" transform="translate(3622.744 5857.381)" fill="#dc1f27"/>
    <path id="Trazado_201982" data-name="Trazado 201982" d="M-3059.4-3709.875l-1.743-11.957-9.483,7.488Z" transform="translate(3619.771 5853.658)" fill="#dc1f27"/>
    <path id="Trazado_201983" data-name="Trazado 201983" d="M-3086.773-3872.554l-10.464-6.041v12.083Z" transform="translate(3620.764 5859.512)" fill="#dc1f27"/>
  </g>
</svg>
